<svg width="509" height="209" viewBox="0 0 509 209" fill="none" xmlns="http://www.w3.org/2000/svg">
<rect width="509" height="110" fill="white"/>
<rect x="102" y="99" width="350" height="110" fill="white"/>
<path d="M22.5061 36.3864V24.4545H69.9138V36.3864H53.5075V79H38.9123V36.3864H22.5061ZM71.7368 79V24.4545H111.048V36.3864H86.5451V45.7614H109.024V57.6932H86.5451V67.0682H110.941V79H71.7368ZM165.565 44.9091H150.544C150.438 43.6662 150.153 42.5387 149.692 41.5266C149.248 40.5146 148.626 39.6445 147.827 38.9165C147.046 38.1708 146.096 37.6026 144.978 37.212C143.859 36.8036 142.59 36.5994 141.169 36.5994C138.683 36.5994 136.579 37.2031 134.857 38.4105C133.152 39.6179 131.856 41.3491 130.968 43.604C130.098 45.859 129.663 48.5668 129.663 51.7273C129.663 55.0653 130.107 57.8619 130.995 60.1168C131.901 62.354 133.206 64.0408 134.91 65.1772C136.615 66.2958 138.666 66.8551 141.063 66.8551C142.43 66.8551 143.655 66.6864 144.738 66.3491C145.821 65.994 146.762 65.4879 147.561 64.831C148.36 64.174 149.008 63.3839 149.505 62.4606C150.02 61.5195 150.367 60.4631 150.544 59.2912L165.565 59.3977C165.388 61.706 164.74 64.0586 163.621 66.4556C162.503 68.8349 160.913 71.0366 158.854 73.0607C156.812 75.0671 154.282 76.6829 151.263 77.908C148.245 79.1332 144.738 79.7457 140.743 79.7457C135.736 79.7457 131.244 78.6715 127.266 76.5231C123.307 74.3746 120.173 71.2141 117.865 67.0415C115.574 62.869 114.429 57.7642 114.429 51.7273C114.429 45.6548 115.601 40.5412 117.945 36.3864C120.288 32.2138 123.449 29.0621 127.426 26.9315C131.403 24.783 135.842 23.7088 140.743 23.7088C144.188 23.7088 147.357 24.1793 150.251 25.1204C153.145 26.0614 155.684 27.4375 157.868 29.2486C160.052 31.0419 161.81 33.2525 163.142 35.8803C164.473 38.5082 165.281 41.5178 165.565 44.9091ZM168.534 79V24.4545H183.342V45.7614H202.944V24.4545H217.752V79H202.944V57.6932H183.342V79H168.534Z" fill="black"/>
<path d="M152.225 145.5C152.083 143.724 151.417 142.339 150.227 141.345C149.055 140.351 147.271 139.854 144.874 139.854C143.347 139.854 142.095 140.04 141.119 140.413C140.16 140.768 139.449 141.256 138.988 141.878C138.526 142.499 138.286 143.21 138.269 144.009C138.233 144.665 138.349 145.26 138.615 145.793C138.899 146.308 139.343 146.778 139.947 147.205C140.55 147.613 141.323 147.986 142.264 148.323C143.205 148.661 144.323 148.962 145.62 149.229L150.094 150.188C153.112 150.827 155.696 151.67 157.844 152.718C159.993 153.765 161.751 154.999 163.118 156.42C164.485 157.822 165.488 159.403 166.127 161.161C166.784 162.918 167.122 164.836 167.139 166.913C167.122 170.5 166.225 173.536 164.449 176.022C162.674 178.508 160.135 180.399 156.832 181.695C153.547 182.991 149.597 183.639 144.98 183.639C140.24 183.639 136.103 182.938 132.569 181.535C129.054 180.132 126.319 177.975 124.366 175.063C122.431 172.134 121.454 168.387 121.436 163.824H135.499C135.588 165.493 136.005 166.896 136.751 168.032C137.496 169.168 138.544 170.029 139.893 170.615C141.261 171.201 142.885 171.494 144.767 171.494C146.348 171.494 147.67 171.299 148.736 170.908C149.801 170.518 150.609 169.976 151.159 169.284C151.71 168.591 151.994 167.801 152.012 166.913C151.994 166.079 151.719 165.351 151.186 164.729C150.671 164.09 149.819 163.522 148.629 163.025C147.44 162.51 145.833 162.031 143.809 161.587L138.375 160.415C133.546 159.367 129.737 157.618 126.949 155.168C124.18 152.7 122.804 149.335 122.821 145.074C122.804 141.612 123.727 138.584 125.591 135.992C127.473 133.382 130.074 131.349 133.395 129.893C136.733 128.437 140.559 127.709 144.874 127.709C149.277 127.709 153.086 128.446 156.3 129.919C159.513 131.393 161.99 133.471 163.73 136.152C165.488 138.815 166.376 141.931 166.394 145.5H152.225ZM201.302 128.455H216.111V163.398C216.111 167.553 215.116 171.148 213.128 174.184C211.157 177.203 208.405 179.538 204.871 181.189C201.338 182.822 197.236 183.639 192.566 183.639C187.861 183.639 183.742 182.822 180.209 181.189C176.675 179.538 173.923 177.203 171.952 174.184C169.999 171.148 169.022 167.553 169.022 163.398V128.455H183.831V162.119C183.831 163.806 184.204 165.315 184.949 166.647C185.695 167.961 186.725 168.991 188.039 169.737C189.37 170.482 190.88 170.855 192.566 170.855C194.271 170.855 195.78 170.482 197.094 169.737C198.408 168.991 199.438 167.961 200.184 166.647C200.929 165.315 201.302 163.806 201.302 162.119V128.455ZM219.398 128.455H237.829L250.506 159.349H251.146L263.823 128.455H282.254V183H267.765V151.466H267.339L255.194 182.574H246.458L234.313 151.253H233.887V183H219.398V128.455ZM285.521 128.455H303.952L316.629 159.349H317.269L329.946 128.455H348.377V183H333.888V151.466H333.462L321.317 182.574H312.581L300.436 151.253H300.01V183H285.521V128.455ZM366.453 128.455V183H351.645V128.455H366.453ZM368.229 140.386V128.455H415.637V140.386H399.231V183H384.635V140.386H368.229Z" fill="black"/>
<path d="M275.002 41.5C274.86 39.7244 274.194 38.3395 273.004 37.3452C271.832 36.3509 270.048 35.8537 267.651 35.8537C266.124 35.8537 264.872 36.0401 263.895 36.413C262.937 36.7681 262.226 37.2564 261.765 37.8778C261.303 38.4993 261.063 39.2095 261.046 40.0085C261.01 40.6655 261.125 41.2603 261.392 41.793C261.676 42.3079 262.12 42.7784 262.723 43.2045C263.327 43.6129 264.1 43.9858 265.041 44.3232C265.982 44.6605 267.1 44.9624 268.396 45.2287L272.871 46.1875C275.889 46.8267 278.473 47.6701 280.621 48.7177C282.77 49.7653 284.527 50.9993 285.895 52.4197C287.262 53.8224 288.265 55.4027 288.904 57.1605C289.561 58.9183 289.899 60.8359 289.916 62.9134C289.899 66.5 289.002 69.5362 287.226 72.022C285.451 74.5078 282.912 76.3988 279.609 77.695C276.324 78.9911 272.374 79.6392 267.757 79.6392C263.016 79.6392 258.879 78.9379 255.346 77.5352C251.83 76.1325 249.096 73.9751 247.143 71.0632C245.208 68.1335 244.231 64.3871 244.213 59.8239H258.276C258.364 61.4929 258.782 62.8956 259.527 64.032C260.273 65.1683 261.321 66.0295 262.67 66.6154C264.037 67.2013 265.662 67.4943 267.544 67.4943C269.124 67.4943 270.447 67.299 271.513 66.9084C272.578 66.5178 273.386 65.9762 273.936 65.2837C274.487 64.5913 274.771 63.8011 274.788 62.9134C274.771 62.0788 274.496 61.3509 273.963 60.7294C273.448 60.0902 272.596 59.522 271.406 59.0249C270.216 58.5099 268.61 58.0305 266.585 57.5866L261.152 56.4148C256.323 55.3672 252.514 53.6183 249.726 51.168C246.956 48.6999 245.58 45.3352 245.598 41.0739C245.58 37.6115 246.504 34.5842 248.368 31.9918C250.25 29.3817 252.851 27.3487 256.172 25.8928C259.51 24.4368 263.336 23.7088 267.651 23.7088C272.054 23.7088 275.863 24.4457 279.076 25.9194C282.29 27.3931 284.767 29.4705 286.507 32.1516C288.265 34.815 289.153 37.9311 289.171 41.5H275.002ZM290.308 36.3864V24.4545H337.716V36.3864H321.309V79H306.714V36.3864H290.308ZM346.823 79H330.843L348.847 24.4545H369.088L387.093 79H371.113L359.181 39.4759H358.755L346.823 79ZM343.84 57.4801H373.883V68.5597H343.84V57.4801ZM388.596 79V24.4545H412.14C416.189 24.4545 419.731 25.1914 422.767 26.6651C425.803 28.1388 428.165 30.2607 429.852 33.0305C431.538 35.8004 432.382 39.1207 432.382 42.9915C432.382 46.8977 431.512 50.1914 429.772 52.8725C428.049 55.5536 425.626 57.5778 422.501 58.945C419.393 60.3121 415.762 60.9957 411.608 60.9957H397.545V49.4901H408.625C410.365 49.4901 411.847 49.277 413.072 48.8509C414.315 48.407 415.265 47.7056 415.922 46.7468C416.597 45.788 416.934 44.5362 416.934 42.9915C416.934 41.429 416.597 40.1594 415.922 39.1829C415.265 38.1886 414.315 37.4606 413.072 36.9989C411.847 36.5195 410.365 36.2798 408.625 36.2798H403.404V79H388.596ZM420.556 53.9645L434.193 79H418.106L404.789 53.9645H420.556ZM433.452 36.3864V24.4545H480.86V36.3864H464.454V79H449.859V36.3864H433.452Z" fill="#B03060"/>
</svg>
