<svg width="1099" height="699" viewBox="0 0 1099 699" fill="none" xmlns="http://www.w3.org/2000/svg">
<path d="M6.00968 101.66L801.392 59.1605L801.392 333.661L6.00968 328.511L6.00968 101.66Z" fill="black"/>
<path d="M6.00968 101.66L801.392 59.1605L801.392 333.661L6.00968 328.511L6.00968 101.66Z" fill="black"/>
<path d="M6.00968 328.511L531.392 319.122L1095.95 328.511L1092.15 698.236L2.7176 637.583L6.00968 328.511Z" fill="black"/>
<path d="M6.00968 328.511L531.392 319.122L1095.95 328.511L1092.15 698.236L2.7176 637.583L6.00968 328.511Z" fill="black"/>
<path d="M297.546 171.661C297.186 167.162 295.499 163.654 292.485 161.135C289.516 158.616 284.996 157.357 278.923 157.357C275.055 157.357 271.884 157.829 269.41 158.773C266.981 159.673 265.182 160.91 264.012 162.484C262.843 164.059 262.235 165.858 262.19 167.882C262.1 169.546 262.393 171.053 263.068 172.403C263.787 173.707 264.912 174.899 266.441 175.979C267.971 177.013 269.927 177.958 272.311 178.813C274.695 179.667 277.529 180.432 280.813 181.107L292.148 183.536C299.795 185.155 306.339 187.291 311.782 189.945C317.225 192.599 321.678 195.725 325.141 199.324C328.605 202.877 331.146 206.881 332.766 211.334C334.43 215.787 335.285 220.645 335.33 225.908C335.285 234.994 333.013 242.686 328.515 248.983C324.017 255.28 317.585 260.071 309.218 263.354C300.897 266.638 290.888 268.28 279.193 268.28C267.183 268.28 256.703 266.503 247.752 262.95C238.845 259.396 231.918 253.931 226.97 246.554C222.067 239.132 219.593 229.641 219.548 218.081H255.173C255.398 222.309 256.455 225.863 258.345 228.741C260.234 231.62 262.888 233.802 266.306 235.286C269.77 236.771 273.886 237.513 278.654 237.513C282.657 237.513 286.008 237.018 288.707 236.028C291.406 235.039 293.452 233.667 294.847 231.913C296.241 230.158 296.961 228.157 297.006 225.908C296.961 223.794 296.264 221.949 294.914 220.375C293.61 218.756 291.451 217.316 288.437 216.057C285.423 214.752 281.352 213.538 276.225 212.413L262.46 209.445C250.225 206.791 240.577 202.36 233.515 196.153C226.498 189.9 223.012 181.376 223.057 170.581C223.012 161.81 225.351 154.14 230.074 147.573C234.842 140.961 241.432 135.811 249.843 132.122C258.3 128.434 267.993 126.589 278.923 126.589C290.079 126.589 299.727 128.456 307.869 132.19C316.01 135.923 322.285 141.186 326.693 147.978C331.146 154.725 333.395 162.619 333.44 171.661H297.546ZM416.175 128.479H453.69V217.001C453.69 227.527 451.171 236.636 446.133 244.327C441.14 251.974 434.168 257.889 425.217 262.072C416.265 266.211 405.875 268.28 394.045 268.28C382.125 268.28 371.689 266.211 362.738 262.072C353.787 257.889 346.815 251.974 341.822 244.327C336.874 236.636 334.4 227.527 334.4 217.001V128.479H371.914V213.763C371.914 218.036 372.859 221.859 374.748 225.233C376.637 228.562 379.246 231.17 382.575 233.06C385.948 234.949 389.772 235.893 394.045 235.893C398.363 235.893 402.186 234.949 405.515 233.06C408.844 231.17 411.452 228.562 413.342 225.233C415.231 221.859 416.175 218.036 416.175 213.763V128.479ZM492.214 266.661H451.731L497.342 128.479H548.62L594.231 266.661H553.748L523.521 166.533H522.441L492.214 266.661ZM484.657 212.143H560.765V240.212H484.657V212.143Z" fill="white"/>
<path d="M217.274 563.661H176.791L222.402 425.479H273.681L319.291 563.661H278.808L248.581 463.533H247.502L217.274 563.661ZM209.717 509.143H285.825V537.212H209.717V509.143ZM400.643 471.089C400.058 468.706 399.136 466.614 397.877 464.815C396.617 462.97 395.043 461.419 393.154 460.159C391.31 458.855 389.151 457.888 386.677 457.258C384.248 456.583 381.571 456.246 378.647 456.246C372.35 456.246 366.975 457.753 362.522 460.766C358.114 463.78 354.74 468.121 352.401 473.788C350.107 479.456 348.96 486.293 348.96 494.3C348.96 502.396 350.062 509.323 352.266 515.081C354.47 520.839 357.754 525.247 362.117 528.305C366.48 531.364 371.9 532.893 378.378 532.893C384.09 532.893 388.836 532.061 392.614 530.397C396.437 528.733 399.294 526.371 401.183 523.313C403.072 520.254 404.017 516.655 404.017 512.517L410.494 513.192H378.917V486.473H440.182V505.635C440.182 518.23 437.505 529.003 432.152 537.954C426.845 546.86 419.513 553.697 410.157 558.465C400.846 563.188 390.163 565.55 378.108 565.55C364.658 565.55 352.851 562.693 342.685 556.981C332.519 551.268 324.58 543.127 318.868 532.556C313.2 521.986 310.366 509.413 310.366 494.84C310.366 483.414 312.098 473.294 315.561 464.477C319.07 455.661 323.928 448.217 330.135 442.144C336.343 436.027 343.517 431.416 351.659 428.313C359.8 425.164 368.527 423.589 377.838 423.589C386.024 423.589 393.626 424.759 400.643 427.098C407.705 429.392 413.935 432.676 419.333 436.949C424.776 441.177 429.161 446.192 432.49 451.995C435.818 457.798 437.842 464.162 438.562 471.089H400.643ZM442.474 563.661V425.479H542.062V455.706H479.988V479.456H536.934V509.683H479.988V533.433H541.792V563.661H442.474ZM665.027 425.479V563.661H633.72L583.791 491.061H582.981V563.661H545.467V425.479H577.314L626.433 497.808H627.512V425.479H665.027ZM720.739 563.661H667.572V425.479H720.199C734.413 425.479 746.693 428.245 757.039 433.778C767.43 439.265 775.436 447.182 781.059 457.528C786.726 467.828 789.56 480.176 789.56 494.57C789.56 508.964 786.749 521.333 781.126 531.679C775.504 541.98 767.542 549.896 757.241 555.429C746.941 560.917 734.773 563.661 720.739 563.661ZM705.086 531.814H719.39C726.227 531.814 732.052 530.712 736.865 528.508C741.723 526.304 745.411 522.503 747.93 517.105C750.494 511.707 751.776 504.196 751.776 494.57C751.776 484.944 750.472 477.432 747.863 472.034C745.299 466.636 741.52 462.835 736.528 460.631C731.58 458.427 725.507 457.325 718.31 457.325H705.086V531.814ZM818.891 563.661H778.409L824.019 425.479H875.298L920.909 563.661H880.426L850.198 463.533H849.119L818.891 563.661ZM811.335 509.143H887.443V537.212H811.335V509.143Z" fill="#B03060"/>
<mask id="path-4-inside-1_22_4" fill="white">
<path d="M1004.8 0.127228C1016.99 -0.167544 1016.99 -0.167544 1020.89 2.59907C1025.15 8.66694 1022.39 20.8249 1021.35 27.792C1018.65 43.0823 1010.37 56.3105 999.867 67.4406C999.182 68.1965 999.182 68.1965 998.483 68.9676C987.217 80.9462 970.614 88.1386 954.98 92.1475C954.357 92.3079 953.734 92.4683 953.091 92.6335C952.495 92.7793 951.899 92.925 951.284 93.0752C950.756 93.205 950.227 93.3348 949.682 93.4686C947.994 93.746 947.994 93.746 943.61 93.746C943.61 136.426 943.61 179.107 943.61 223.081C946.365 220.877 948.085 219.313 950.186 216.641C952.912 213.238 955.718 209.924 958.588 206.64C961.381 203.438 964.134 200.217 966.807 196.912C968.884 194.345 971.021 191.863 973.245 189.423C975.327 187.137 977.315 184.819 979.227 182.39C981.701 179.253 984.277 176.223 986.899 173.21C987.305 172.743 987.712 172.276 988.131 171.794C988.958 170.844 989.785 169.894 990.612 168.945C995.56 163.268 1000.46 157.573 1005.12 151.654C1005.46 151.218 1005.81 150.782 1006.16 150.333C1007.92 148.084 1007.92 148.084 1009.36 145.626C1008.21 145.643 1008.21 145.643 1007.03 145.661C1004.16 145.701 1001.28 145.726 998.409 145.746C997.168 145.757 995.927 145.772 994.686 145.791C992.896 145.818 991.106 145.83 989.316 145.84C988.767 145.851 988.218 145.863 987.653 145.874C983.267 145.876 979.784 145.032 976.382 142.07C972.888 137.863 970.95 134.753 971.099 129.165C971.774 124.715 973.908 120.63 977.446 117.814C981.492 114.95 987.765 115.556 992.537 115.549C993.164 115.546 993.791 115.542 994.436 115.538C996.491 115.528 998.546 115.523 1000.6 115.519C1001.66 115.516 1001.66 115.516 1002.74 115.512C1006.47 115.502 1010.2 115.495 1013.93 115.492C1017.77 115.488 1021.61 115.47 1025.46 115.449C1028.42 115.436 1031.39 115.432 1034.35 115.431C1035.77 115.428 1037.19 115.423 1038.61 115.413C1040.59 115.401 1042.57 115.402 1044.55 115.407C1045.13 115.4 1045.71 115.393 1046.31 115.386C1052.12 115.43 1056.33 117.331 1060.51 121.513C1062.62 125.503 1063.02 128.695 1062.98 133.164C1062.99 134.115 1062.99 134.115 1062.99 135.085C1063 137.168 1063 139.25 1062.99 141.333C1062.99 142.788 1062.99 144.243 1063 145.698C1063 148.742 1063 151.786 1062.99 154.83C1062.97 158.724 1062.98 162.618 1062.99 166.513C1063 169.515 1063 172.518 1062.99 175.521C1062.99 176.956 1062.99 178.392 1063 179.828C1063 181.837 1063 183.846 1062.98 185.855C1062.99 186.443 1062.99 187.032 1063 187.638C1062.95 191.961 1062.22 195.552 1059.28 198.913C1058.85 199.248 1058.43 199.582 1058 199.927C1057.58 200.27 1057.15 200.614 1056.72 200.968C1052.36 203.999 1048.17 203.849 1042.97 203.352C1038.67 202.147 1035.94 199.772 1033.48 196.045C1031 190.725 1030.89 185.339 1030.78 179.558C1030.76 178.682 1030.73 177.805 1030.71 176.902C1030.65 174.758 1030.59 172.614 1030.55 170.47C1026.91 174.405 1023.33 178.35 1019.96 182.527C1017.73 185.292 1015.42 187.95 1013.02 190.564C1009.44 194.456 1006.1 198.503 1002.79 202.621C999.064 207.241 995.266 211.742 991.271 216.13C989.061 218.615 986.985 221.198 984.895 223.783C982.779 226.347 980.596 228.846 978.405 231.347C974.919 235.332 971.602 239.411 968.366 243.6C965.932 246.732 963.333 249.662 960.645 252.58C958.628 254.87 956.758 257.251 954.889 259.662C944.471 273.041 944.471 273.041 937.126 274.139C932.337 274.484 929.081 273.347 925.436 270.257C920.066 263.78 921.565 254.096 921.748 246.132C921.772 244.976 921.787 243.821 921.795 242.665C921.806 240.972 921.84 239.282 921.88 237.589C921.88 237.078 921.879 236.566 921.878 236.039C921.977 233.184 922.221 232.055 924.25 229.984C926.951 226.869 926.591 223.471 926.557 219.522C926.565 218.73 926.573 217.938 926.58 217.123C926.601 214.513 926.597 211.904 926.592 209.294C926.602 207.482 926.613 205.67 926.625 203.858C926.655 199.094 926.662 194.33 926.665 189.565C926.67 184.701 926.699 179.838 926.725 174.974C926.772 165.435 926.797 155.896 926.806 146.357C923.01 146.284 919.214 146.231 915.417 146.196C914.126 146.181 912.835 146.162 911.544 146.136C909.686 146.101 907.83 146.084 905.972 146.071C905.396 146.056 904.82 146.041 904.226 146.026C901.745 146.025 900.165 146.058 898.159 147.59C896.558 149.658 896.488 150.669 896.495 153.261C896.49 154.071 896.485 154.88 896.479 155.714C896.489 156.6 896.498 157.485 896.508 158.397C896.506 159.333 896.504 160.269 896.503 161.233C896.499 163.804 896.513 166.374 896.531 168.945C896.546 171.656 896.546 174.367 896.547 177.078C896.552 181.65 896.567 186.222 896.59 190.794C896.62 196.594 896.633 202.395 896.64 208.195C896.646 213.242 896.658 218.288 896.673 223.335C896.675 224.402 896.678 225.469 896.681 226.536C896.708 237.806 896.803 249.073 897.133 260.338C897.155 261.205 897.176 262.072 897.198 262.965C897.606 275.122 901.997 284.481 910.907 292.872C919.256 299.926 930 302.064 940.688 301.266C951.144 299.111 959.736 293.975 966.076 285.328C970.425 278.678 972.606 272.335 973.852 264.53C974.686 259.815 976.21 257.218 980.006 254.164C984.724 251.694 989.901 251.315 995.024 252.817C999.387 254.78 1002 257.588 1003.75 262.082C1006.2 274.998 1000.47 290.05 993.459 300.737C990.649 304.68 987.241 308.114 983.794 311.496C982.851 312.424 982.851 312.424 981.89 313.371C977.758 317.254 973.357 320.357 968.451 323.187C967.891 323.517 967.332 323.847 966.756 324.186C952.131 332.169 932.329 334.048 916.349 329.764C898.154 324.407 883.636 312.475 874.202 296.151C867.307 283.392 865.919 269.895 866.023 255.657C866.026 254.501 866.028 253.345 866.029 252.189C866.034 249.725 866.043 247.261 866.056 244.797C866.076 240.9 866.084 237.004 866.091 233.107C866.107 224.848 866.136 216.589 866.165 208.33C866.198 199.383 866.228 190.436 866.243 181.489C866.251 177.615 866.265 173.741 866.285 169.867C866.296 167.464 866.301 165.061 866.304 162.658C866.307 161.543 866.312 160.428 866.32 159.314C866.33 157.794 866.332 156.274 866.331 154.754C866.335 153.904 866.338 153.053 866.341 152.177C866.169 150.052 865.882 148.845 864.704 147.087C862.735 146.103 861.193 146.255 858.988 146.241C858.096 146.234 857.203 146.226 856.284 146.219C855.805 146.216 855.327 146.214 854.834 146.211C853.334 146.203 851.836 146.188 850.337 146.172C846.074 146.127 841.812 146.088 837.549 146.063C834.942 146.048 832.335 146.022 829.727 145.99C828.255 145.975 826.783 145.971 825.311 145.967C824.409 145.955 823.507 145.943 822.578 145.93C821.392 145.922 821.392 145.922 820.182 145.912C815.38 145.298 812.499 142.773 809.532 139.175C806.88 135.295 806.643 131.269 807.326 126.702C808.423 122.391 811.475 119.585 815.023 117.129C820.355 115.329 825.604 115.443 831.189 115.434C832.226 115.427 833.264 115.42 834.301 115.412C837.102 115.392 839.903 115.381 842.705 115.371C845.638 115.36 848.571 115.34 851.504 115.322C857.051 115.288 862.599 115.261 868.146 115.236C874.465 115.208 880.783 115.172 887.102 115.136C900.093 115.06 913.084 114.996 926.075 114.936C926.075 108.426 926.075 101.915 926.075 95.2074C923.408 94.6799 920.741 94.1524 917.993 93.609C901.089 90.1364 885.5 84.2508 874.921 69.8154C871.646 64.64 869.327 59.0174 869.088 52.8265C870.162 50.4029 871.121 49.9674 873.589 48.9789C874.534 48.7222 875.485 48.4834 876.44 48.2596C876.951 48.1371 877.463 48.0146 877.99 47.8883C891.268 45.0027 903.465 47.3498 915.116 54.2879C919.915 57.7265 924.223 61.6857 928.267 65.9792C929.33 63.9647 930.118 62.0017 930.784 59.8253C937.162 39.5288 947.705 20.1923 967.093 9.68241C979.044 3.53675 991.42 0.715698 1004.8 0.127228ZM961.145 33.8281C960.657 34.3085 960.169 34.7889 959.666 35.2838C951.687 43.6978 947.382 55.1511 944.843 66.2532C944.717 66.8007 944.592 67.3482 944.463 67.9123C943.753 71.2357 943.489 74.2732 943.61 77.6704C962.799 77.2706 979.166 66.6839 992.487 53.6628C1001.48 44.1167 1006.39 30.712 1007.17 17.7526C1006.81 17.0292 1006.81 17.0292 1006.44 16.2912C988.59 15.7121 973.695 21.1277 961.145 33.8281ZM890.276 62.3256C893.045 68.78 900.543 71.7511 906.626 74.4222C909.712 75.6543 912.571 76.4225 915.847 76.9397C913.251 70.9166 907.042 67.3528 901.346 64.6548C897.737 63.2949 894.1 62.719 890.276 62.3256Z"/>
</mask>
<path d="M1004.8 0.127228C1016.99 -0.167544 1016.99 -0.167544 1020.89 2.59907C1025.15 8.66694 1022.39 20.8249 1021.35 27.792C1018.65 43.0823 1010.37 56.3105 999.867 67.4406C999.182 68.1965 999.182 68.1965 998.483 68.9676C987.217 80.9462 970.614 88.1386 954.98 92.1475C954.357 92.3079 953.734 92.4683 953.091 92.6335C952.495 92.7793 951.899 92.925 951.284 93.0752C950.756 93.205 950.227 93.3348 949.682 93.4686C947.994 93.746 947.994 93.746 943.61 93.746C943.61 136.426 943.61 179.107 943.61 223.081C946.365 220.877 948.085 219.313 950.186 216.641C952.912 213.238 955.718 209.924 958.588 206.64C961.381 203.438 964.134 200.217 966.807 196.912C968.884 194.345 971.021 191.863 973.245 189.423C975.327 187.137 977.315 184.819 979.227 182.39C981.701 179.253 984.277 176.223 986.899 173.21C987.305 172.743 987.712 172.276 988.131 171.794C988.958 170.844 989.785 169.894 990.612 168.945C995.56 163.268 1000.46 157.573 1005.12 151.654C1005.46 151.218 1005.81 150.782 1006.16 150.333C1007.92 148.084 1007.92 148.084 1009.36 145.626C1008.21 145.643 1008.21 145.643 1007.03 145.661C1004.16 145.701 1001.28 145.726 998.409 145.746C997.168 145.757 995.927 145.772 994.686 145.791C992.896 145.818 991.106 145.83 989.316 145.84C988.767 145.851 988.218 145.863 987.653 145.874C983.267 145.876 979.784 145.032 976.382 142.07C972.888 137.863 970.95 134.753 971.099 129.165C971.774 124.715 973.908 120.63 977.446 117.814C981.492 114.95 987.765 115.556 992.537 115.549C993.164 115.546 993.791 115.542 994.436 115.538C996.491 115.528 998.546 115.523 1000.6 115.519C1001.66 115.516 1001.66 115.516 1002.74 115.512C1006.47 115.502 1010.2 115.495 1013.93 115.492C1017.77 115.488 1021.61 115.47 1025.46 115.449C1028.42 115.436 1031.39 115.432 1034.35 115.431C1035.77 115.428 1037.19 115.423 1038.61 115.413C1040.59 115.401 1042.57 115.402 1044.55 115.407C1045.13 115.4 1045.71 115.393 1046.31 115.386C1052.12 115.43 1056.33 117.331 1060.51 121.513C1062.62 125.503 1063.02 128.695 1062.98 133.164C1062.99 134.115 1062.99 134.115 1062.99 135.085C1063 137.168 1063 139.25 1062.99 141.333C1062.99 142.788 1062.99 144.243 1063 145.698C1063 148.742 1063 151.786 1062.99 154.83C1062.97 158.724 1062.98 162.618 1062.99 166.513C1063 169.515 1063 172.518 1062.99 175.521C1062.99 176.956 1062.99 178.392 1063 179.828C1063 181.837 1063 183.846 1062.98 185.855C1062.99 186.443 1062.99 187.032 1063 187.638C1062.95 191.961 1062.22 195.552 1059.28 198.913C1058.85 199.248 1058.43 199.582 1058 199.927C1057.58 200.27 1057.15 200.614 1056.72 200.968C1052.36 203.999 1048.17 203.849 1042.97 203.352C1038.67 202.147 1035.94 199.772 1033.48 196.045C1031 190.725 1030.89 185.339 1030.78 179.558C1030.76 178.682 1030.73 177.805 1030.71 176.902C1030.65 174.758 1030.59 172.614 1030.55 170.47C1026.91 174.405 1023.33 178.35 1019.96 182.527C1017.73 185.292 1015.42 187.95 1013.02 190.564C1009.44 194.456 1006.1 198.503 1002.79 202.621C999.064 207.241 995.266 211.742 991.271 216.13C989.061 218.615 986.985 221.198 984.895 223.783C982.779 226.347 980.596 228.846 978.405 231.347C974.919 235.332 971.602 239.411 968.366 243.6C965.932 246.732 963.333 249.662 960.645 252.58C958.628 254.87 956.758 257.251 954.889 259.662C944.471 273.041 944.471 273.041 937.126 274.139C932.337 274.484 929.081 273.347 925.436 270.257C920.066 263.78 921.565 254.096 921.748 246.132C921.772 244.976 921.787 243.821 921.795 242.665C921.806 240.972 921.84 239.282 921.88 237.589C921.88 237.078 921.879 236.566 921.878 236.039C921.977 233.184 922.221 232.055 924.25 229.984C926.951 226.869 926.591 223.471 926.557 219.522C926.565 218.73 926.573 217.938 926.58 217.123C926.601 214.513 926.597 211.904 926.592 209.294C926.602 207.482 926.613 205.67 926.625 203.858C926.655 199.094 926.662 194.33 926.665 189.565C926.67 184.701 926.699 179.838 926.725 174.974C926.772 165.435 926.797 155.896 926.806 146.357C923.01 146.284 919.214 146.231 915.417 146.196C914.126 146.181 912.835 146.162 911.544 146.136C909.686 146.101 907.83 146.084 905.972 146.071C905.396 146.056 904.82 146.041 904.226 146.026C901.745 146.025 900.165 146.058 898.159 147.59C896.558 149.658 896.488 150.669 896.495 153.261C896.49 154.071 896.485 154.88 896.479 155.714C896.489 156.6 896.498 157.485 896.508 158.397C896.506 159.333 896.504 160.269 896.503 161.233C896.499 163.804 896.513 166.374 896.531 168.945C896.546 171.656 896.546 174.367 896.547 177.078C896.552 181.65 896.567 186.222 896.59 190.794C896.62 196.594 896.633 202.395 896.64 208.195C896.646 213.242 896.658 218.288 896.673 223.335C896.675 224.402 896.678 225.469 896.681 226.536C896.708 237.806 896.803 249.073 897.133 260.338C897.155 261.205 897.176 262.072 897.198 262.965C897.606 275.122 901.997 284.481 910.907 292.872C919.256 299.926 930 302.064 940.688 301.266C951.144 299.111 959.736 293.975 966.076 285.328C970.425 278.678 972.606 272.335 973.852 264.53C974.686 259.815 976.21 257.218 980.006 254.164C984.724 251.694 989.901 251.315 995.024 252.817C999.387 254.78 1002 257.588 1003.75 262.082C1006.2 274.998 1000.47 290.05 993.459 300.737C990.649 304.68 987.241 308.114 983.794 311.496C982.851 312.424 982.851 312.424 981.89 313.371C977.758 317.254 973.357 320.357 968.451 323.187C967.891 323.517 967.332 323.847 966.756 324.186C952.131 332.169 932.329 334.048 916.349 329.764C898.154 324.407 883.636 312.475 874.202 296.151C867.307 283.392 865.919 269.895 866.023 255.657C866.026 254.501 866.028 253.345 866.029 252.189C866.034 249.725 866.043 247.261 866.056 244.797C866.076 240.9 866.084 237.004 866.091 233.107C866.107 224.848 866.136 216.589 866.165 208.33C866.198 199.383 866.228 190.436 866.243 181.489C866.251 177.615 866.265 173.741 866.285 169.867C866.296 167.464 866.301 165.061 866.304 162.658C866.307 161.543 866.312 160.428 866.32 159.314C866.33 157.794 866.332 156.274 866.331 154.754C866.335 153.904 866.338 153.053 866.341 152.177C866.169 150.052 865.882 148.845 864.704 147.087C862.735 146.103 861.193 146.255 858.988 146.241C858.096 146.234 857.203 146.226 856.284 146.219C855.805 146.216 855.327 146.214 854.834 146.211C853.334 146.203 851.836 146.188 850.337 146.172C846.074 146.127 841.812 146.088 837.549 146.063C834.942 146.048 832.335 146.022 829.727 145.99C828.255 145.975 826.783 145.971 825.311 145.967C824.409 145.955 823.507 145.943 822.578 145.93C821.392 145.922 821.392 145.922 820.182 145.912C815.38 145.298 812.499 142.773 809.532 139.175C806.88 135.295 806.643 131.269 807.326 126.702C808.423 122.391 811.475 119.585 815.023 117.129C820.355 115.329 825.604 115.443 831.189 115.434C832.226 115.427 833.264 115.42 834.301 115.412C837.102 115.392 839.903 115.381 842.705 115.371C845.638 115.36 848.571 115.34 851.504 115.322C857.051 115.288 862.599 115.261 868.146 115.236C874.465 115.208 880.783 115.172 887.102 115.136C900.093 115.06 913.084 114.996 926.075 114.936C926.075 108.426 926.075 101.915 926.075 95.2074C923.408 94.6799 920.741 94.1524 917.993 93.609C901.089 90.1364 885.5 84.2508 874.921 69.8154C871.646 64.64 869.327 59.0174 869.088 52.8265C870.162 50.4029 871.121 49.9674 873.589 48.9789C874.534 48.7222 875.485 48.4834 876.44 48.2596C876.951 48.1371 877.463 48.0146 877.99 47.8883C891.268 45.0027 903.465 47.3498 915.116 54.2879C919.915 57.7265 924.223 61.6857 928.267 65.9792C929.33 63.9647 930.118 62.0017 930.784 59.8253C937.162 39.5288 947.705 20.1923 967.093 9.68241C979.044 3.53675 991.42 0.715698 1004.8 0.127228ZM961.145 33.8281C960.657 34.3085 960.169 34.7889 959.666 35.2838C951.687 43.6978 947.382 55.1511 944.843 66.2532C944.717 66.8007 944.592 67.3482 944.463 67.9123C943.753 71.2357 943.489 74.2732 943.61 77.6704C962.799 77.2706 979.166 66.6839 992.487 53.6628C1001.48 44.1167 1006.39 30.712 1007.17 17.7526C1006.81 17.0292 1006.81 17.0292 1006.44 16.2912C988.59 15.7121 973.695 21.1277 961.145 33.8281ZM890.276 62.3256C893.045 68.78 900.543 71.7511 906.626 74.4222C909.712 75.6543 912.571 76.4225 915.847 76.9397C913.251 70.9166 907.042 67.3528 901.346 64.6548C897.737 63.2949 894.1 62.719 890.276 62.3256Z" fill="white" stroke="#010000" stroke-width="4" mask="url(#path-4-inside-1_22_4)"/>
</svg>
