<?xml version="1.0" encoding="UTF-8"?>
<!-- Generator: visioncortex VTracer 0.6.4 -->
<svg version="1.1" xmlns="http://www.w3.org/2000/svg" width="1280" height="1280">
<path d="M0 0 C16.68209181 -0.40340763 16.68209181 -0.40340763 22.02734375 3.3828125 C27.84956648 11.68694428 24.07164657 28.3256414 22.64404297 37.86035156 C18.9606205 58.78580682 7.62482911 76.8891699 -6.75390625 92.12109375 C-7.69169922 93.15556641 -7.69169922 93.15556641 -8.6484375 94.2109375 C-24.06770916 110.60405789 -46.79316476 120.44716279 -68.19140625 125.93359375 C-69.04452393 126.15305664 -69.8976416 126.37251953 -70.77661133 126.59863281 C-71.59282959 126.79811523 -72.40904785 126.99759766 -73.25 127.203125 C-73.97372803 127.38077393 -74.69745605 127.55842285 -75.44311523 127.74145508 C-77.75390625 128.12109375 -77.75390625 128.12109375 -83.75390625 128.12109375 C-83.75390625 186.53109375 -83.75390625 244.94109375 -83.75390625 305.12109375 C-79.98364001 302.10488076 -77.6295755 299.96496227 -74.75390625 296.30859375 C-71.02231279 291.65032125 -67.18126281 287.11535569 -63.25390625 282.62109375 C-59.43034419 278.23933135 -55.66234603 273.83047648 -52.00390625 269.30859375 C-49.1608637 265.79507133 -46.23608472 262.39892243 -43.19140625 259.05859375 C-40.34244659 255.93013203 -37.6208818 252.75830482 -35.00390625 249.43359375 C-31.61809703 245.14087135 -28.09250535 240.99382948 -24.50390625 236.87109375 C-23.94751465 236.23155762 -23.39112305 235.59202148 -22.81787109 234.93310547 C-21.68587244 233.63301723 -20.55354769 232.33321287 -19.42089844 231.03369141 C-12.6491532 223.26423444 -5.94229901 215.4713043 0.43359375 207.37109375 C0.90361816 206.77417725 1.37364258 206.17726074 1.85791016 205.56225586 C4.27243142 202.48532189 4.27243142 202.48532189 6.24609375 199.12109375 C4.66526001 199.14465942 4.66526001 199.14465942 3.05249023 199.16870117 C-0.8816759 199.22326631 -4.81580899 199.25753987 -8.75024414 199.28588867 C-10.44854367 199.30091501 -12.1468048 199.32134198 -13.8449707 199.34741211 C-16.29518143 199.38406824 -18.74487625 199.40088164 -21.1953125 199.4140625 C-21.94663956 199.42954636 -22.69796661 199.44503021 -23.47206116 199.46098328 C-29.47413235 199.46287163 -34.24256895 198.30764972 -38.8984375 194.25390625 C-43.68085153 188.49708936 -46.33316613 184.24072937 -46.12890625 176.59375 C-45.20521558 170.50316462 -42.28521778 164.91364558 -37.44140625 161.05859375 C-31.9046627 157.13963925 -23.31809944 157.96917406 -16.78686523 157.95996094 C-15.92887329 157.95499603 -15.07088135 157.95003113 -14.18688965 157.94491577 C-11.3745847 157.93041911 -8.56233602 157.92351555 -5.75 157.91796875 C-4.30126338 157.91372768 -4.30126338 157.91372768 -2.82325935 157.90940094 C2.28115992 157.89446419 7.38555129 157.88519811 12.48999023 157.88085938 C17.75117092 157.87536222 23.01209445 157.85129225 28.27319431 157.82288742 C32.33189134 157.80424292 36.39052638 157.79905462 40.44926262 157.7975235 C42.38887892 157.79450393 44.32849431 157.78649897 46.26806831 157.77333832 C48.98172703 157.75622903 51.69475607 157.75816918 54.40844727 157.76464844 C55.2029277 157.75543365 55.99740814 157.74621887 56.81596375 157.73672485 C64.77175058 157.79604436 70.52273874 160.39773874 76.24609375 166.12109375 C79.13640726 171.58168717 79.68039658 175.9497561 79.63427734 182.06640625 C79.64216278 183.36780548 79.64216278 183.36780548 79.65020752 184.69549561 C79.66334512 187.54588145 79.65469161 190.39570282 79.64453125 193.24609375 C79.64655378 195.23714301 79.64946671 197.22819155 79.65322876 199.21923828 C79.65764366 203.38516313 79.65124787 207.55089456 79.63720703 211.71679688 C79.62011574 217.04643146 79.62996138 222.37561275 79.64792442 227.70523071 C79.65878475 231.81456901 79.65530558 235.92380051 79.64754105 240.03314209 C79.64554526 241.99786432 79.6479764 243.96259637 79.65497971 245.92730713 C79.6626312 248.67705834 79.65093831 251.42608384 79.63427734 254.17578125 C79.64035004 254.98118347 79.64642273 255.78658569 79.65267944 256.61639404 C79.58654223 262.53299791 78.58419704 267.44665078 74.5625 272.046875 C73.98371094 272.50449219 73.40492188 272.96210937 72.80859375 273.43359375 C72.23238281 273.90410156 71.65617187 274.37460937 71.0625 274.859375 C65.09231758 279.00640494 59.36385012 278.80221876 52.24609375 278.12109375 C46.36321198 276.47238803 42.61512093 273.22276347 39.24609375 268.12109375 C35.85436051 260.84022529 35.71183212 253.47007178 35.55859375 245.55859375 C35.52443359 244.35912109 35.49027344 243.15964844 35.45507812 241.92382812 C35.37324921 238.98967691 35.30388745 236.05580011 35.24609375 233.12109375 C30.25669645 238.50630963 25.3566991 243.90526279 20.74609375 249.62109375 C17.69260696 253.40569709 14.53941074 257.04316912 11.24609375 260.62109375 C6.35142538 265.9469771 1.77816626 271.48597714 -2.75390625 277.12109375 C-7.85241602 283.44324587 -13.05143831 289.60390052 -18.51953125 295.609375 C-21.54394219 299.0091936 -24.3857936 302.54402932 -27.24609375 306.08203125 C-30.14221296 309.59165858 -33.13037688 313.01158786 -36.12890625 316.43359375 C-40.90031261 321.88682797 -45.44096393 327.46949637 -49.87060547 333.20239258 C-53.20198678 337.48864003 -56.75941418 341.4982732 -60.4375 345.4921875 C-63.19829805 348.62543723 -65.75825735 351.88452426 -68.31640625 355.18359375 C-82.57555087 373.49422054 -82.57555087 373.49422054 -92.62890625 374.99609375 C-99.18407617 375.46924887 -103.64071572 373.91271181 -108.62890625 369.68359375 C-115.97979101 360.81929154 -113.92707286 347.56618099 -113.67675781 336.66723633 C-113.64467889 335.08603994 -113.62363999 333.50458353 -113.61328125 331.9230957 C-113.59801073 329.60650986 -113.55067257 327.29251733 -113.49609375 324.9765625 C-113.49688934 324.27645554 -113.49768494 323.57634857 -113.49850464 322.85502625 C-113.36407582 318.94768181 -113.02916167 317.40207915 -110.25291443 314.56803894 C-106.55499846 310.30507881 -107.04861543 305.65500107 -107.09448242 300.25048828 C-107.08399872 299.16696579 -107.07351501 298.0834433 -107.06271362 296.96708679 C-107.03397725 293.39573482 -107.04025398 289.82535307 -107.046875 286.25390625 C-107.03375922 283.77382188 -107.01845538 281.29374818 -107.00105286 278.81369019 C-106.96117665 272.29364393 -106.95101063 265.77387696 -106.94702148 259.25372314 C-106.94037554 252.59745339 -106.90028454 245.94132558 -106.86523438 239.28515625 C-106.80063157 226.23048341 -106.76645951 213.17591509 -106.75390625 200.12109375 C-111.94997611 200.02213549 -117.14549623 199.94958382 -122.34228516 199.90136719 C-124.10963497 199.88126525 -125.87691838 199.85397903 -127.64404297 199.81933594 C-130.1860391 199.77075366 -132.72715521 199.74811149 -135.26953125 199.73046875 C-136.05821594 199.70982361 -136.84690063 199.68917847 -137.65948486 199.66790771 C-141.0555712 199.66652205 -143.21767212 199.71159385 -145.96408367 201.80891514 C-148.15491632 204.63913779 -148.25046422 206.02281085 -148.24165344 209.5700531 C-148.24859726 210.67796707 -148.25554108 211.78588104 -148.26269531 212.92736816 C-148.24988525 214.1391272 -148.2370752 215.35088623 -148.22387695 216.59936523 C-148.22606735 217.87985245 -148.22825775 219.16033966 -148.23051453 220.47962952 C-148.23594173 223.99796317 -148.21647884 227.51577131 -148.19241357 231.03401065 C-148.17103223 234.74401586 -148.17170715 238.45402072 -148.16972351 242.16407776 C-148.16326598 248.42124353 -148.14202028 254.67821466 -148.1105957 260.93530273 C-148.07077096 268.87352808 -148.05296773 276.81162492 -148.04328632 284.74993801 C-148.03484662 291.65620863 -148.0176376 298.56245397 -147.99824882 305.4687016 C-147.99424507 306.92914678 -147.99049936 308.3895927 -147.98702645 309.85003924 C-147.95006871 325.27340869 -147.81959966 340.69218763 -147.36791992 356.10961914 C-147.33850217 357.29571242 -147.30908442 358.48180571 -147.27877522 359.70384121 C-146.72075894 376.34235314 -140.71050553 389.15044184 -128.515625 400.6328125 C-117.08716354 410.28745511 -102.38295344 413.21258743 -87.75390625 412.12109375 C-73.44242114 409.17225471 -61.68192553 402.14225641 -53.00390625 390.30859375 C-47.05115592 381.20762212 -44.06657356 372.52763481 -42.3605957 361.84594727 C-41.21902946 355.39347177 -39.13340411 351.83922751 -33.9375 347.66015625 C-27.48082402 344.28015138 -20.39478951 343.76017576 -13.3828125 345.81640625 C-7.41028268 348.50348016 -3.83336472 352.34534341 -1.44140625 358.49609375 C1.91085672 376.17166212 -5.92760817 396.77124917 -15.52490234 411.39648438 C-19.37042451 416.79274352 -24.03505547 421.49289992 -28.75390625 426.12109375 C-30.04361328 427.39146484 -30.04361328 427.39146484 -31.359375 428.6875 C-37.01526815 434.00170168 -43.0382217 438.24740904 -49.75390625 442.12109375 C-50.51960937 442.57226562 -51.2853125 443.0234375 -52.07421875 443.48828125 C-72.09108207 454.41273886 -99.194729 456.98496985 -121.06640625 451.12109375 C-145.97059515 443.79079403 -165.84112267 427.46027193 -178.75390625 405.12109375 C-188.19177277 387.65988125 -190.09080431 369.18784668 -189.94921875 349.70239258 C-189.94536866 348.12048533 -189.94244662 346.5385756 -189.94036865 344.95666504 C-189.93410744 341.58468252 -189.92166564 338.21280345 -189.90423584 334.84086037 C-189.8769461 329.50798472 -189.86535378 324.1751419 -189.85595703 318.84220886 C-189.83388136 307.53929167 -189.79472593 296.23645639 -189.75390625 284.93359375 C-189.70979578 272.68963923 -189.66872776 260.44571646 -189.64706993 248.20169848 C-189.6371114 242.89982223 -189.61740618 237.59809895 -189.59020996 232.29628432 C-189.57531026 229.00744431 -189.56866398 225.71862539 -189.56427765 222.42975616 C-189.56052957 220.90431903 -189.55331958 219.37888594 -189.5424118 217.8534832 C-189.5280026 215.77334282 -189.52590311 213.6935393 -189.52685547 211.61335754 C-189.52241425 210.44925763 -189.51797302 209.28515772 -189.51339722 208.08578205 C-189.74926422 205.17831473 -190.14136746 203.52613932 -191.75390625 201.12109375 C-194.44916148 199.77346613 -196.55932591 199.98154838 -199.57714844 199.96337891 C-200.79891785 199.95311676 -202.02068726 199.94285461 -203.27947998 199.93228149 C-203.93441185 199.92884357 -204.58934372 199.92540565 -205.26412201 199.92186356 C-207.31592952 199.91006917 -209.36752704 199.8906133 -211.41925049 199.8687439 C-217.25338701 199.80715968 -223.08750399 199.7531683 -228.921875 199.71972656 C-232.49052768 199.69872089 -236.05880051 199.66336693 -239.62723541 199.61896896 C-241.64225681 199.59800503 -243.65742207 199.59276895 -245.67254639 199.58779907 C-246.90692444 199.5712326 -248.14130249 199.55466614 -249.41308594 199.53759766 C-251.03618683 199.52546738 -251.03618683 199.52546738 -252.69207764 199.51309204 C-259.26475773 198.67160818 -263.20843513 195.21659855 -267.26953125 190.29296875 C-270.89852032 184.98318475 -271.22343966 179.47331723 -270.2890625 173.22265625 C-268.78688345 167.32358817 -264.60938247 163.48257729 -259.75390625 160.12109375 C-252.45615376 157.6578105 -245.27116984 157.81477731 -237.62695312 157.80224609 C-236.20706621 157.79293501 -234.78718471 157.7827646 -233.36730957 157.77180481 C-229.53320627 157.74462365 -225.69913948 157.72939088 -221.86496544 157.71637678 C-217.85040501 157.70069394 -213.83591854 157.67392027 -209.82141113 157.64834595 C-202.2285221 157.60164909 -194.63561902 157.56486111 -187.04266024 157.53167307 C-178.39446768 157.49338726 -169.74634957 157.44399411 -161.09821987 157.39368892 C-143.31683025 157.29050434 -125.53540906 157.20266636 -107.75390625 157.12109375 C-107.75390625 148.21109375 -107.75390625 139.30109375 -107.75390625 130.12109375 C-111.40453125 129.39921875 -115.05515625 128.67734375 -118.81640625 127.93359375 C-141.95383426 123.18120975 -163.28966182 115.12657453 -177.76953125 95.37109375 C-182.25272604 88.28839946 -185.42636135 80.59358852 -185.75390625 72.12109375 C-184.28425907 68.80438027 -182.97159699 68.20827768 -179.59375 66.85546875 C-178.29903102 66.50418449 -176.99748527 66.17745213 -175.69140625 65.87109375 C-174.99112305 65.70343506 -174.29083984 65.53577637 -173.56933594 65.36303711 C-155.3960917 61.41399033 -138.70132075 64.6259665 -122.75390625 74.12109375 C-116.18569707 78.82692463 -110.28965142 84.24526868 -104.75390625 90.12109375 C-103.2989607 87.3642726 -102.22091199 84.67772542 -101.30859375 81.69921875 C-92.57988294 53.92270785 -78.14919579 27.45985782 -51.61230469 13.07666016 C-35.25529041 4.66607767 -18.31510819 0.80534518 0 0 Z M-59.75390625 46.12109375 C-60.42164063 46.77851563 -61.089375 47.4359375 -61.77734375 48.11328125 C-72.69911878 59.62809384 -78.59161738 75.30240909 -82.06640625 90.49609375 C-82.23817383 91.24536133 -82.40994141 91.99462891 -82.58691406 92.76660156 C-83.55821462 97.31488369 -83.91951487 101.47178498 -83.75390625 106.12109375 C-57.49017292 105.57393264 -35.08803175 91.08551682 -16.85546875 73.265625 C-4.54339484 60.20145608 2.18044994 41.85645142 3.24609375 24.12109375 C2.75109375 23.13109375 2.75109375 23.13109375 2.24609375 22.12109375 C-22.18946006 21.3285893 -42.57546838 28.73996045 -59.75390625 46.12109375 Z M-156.75390625 85.12109375 C-152.96283168 93.95410505 -142.70109697 98.02016376 -134.375 101.67578125 C-130.15059515 103.36189753 -126.23702741 104.41323251 -121.75390625 105.12109375 C-125.30751372 96.87818982 -133.80545036 92.00096089 -141.6015625 88.30859375 C-146.54195135 86.44753029 -151.51965831 85.65936747 -156.75390625 85.12109375 Z " fill="#FEFEFD" transform="translate(735.75390625,319.87890625)"/>
<path d="M0 0 C2.26979665 -0.10794277 4.54105196 -0.18556176 6.8125 -0.25 C8.07707031 -0.29640625 9.34164062 -0.3428125 10.64453125 -0.390625 C14 0 14 0 15.52954102 1.59423828 C17.3575208 4.58492611 18.60047591 7.61958184 19.8828125 10.8828125 C20.27241653 11.86602982 20.27241653 11.86602982 20.66989136 12.86911011 C21.49400869 14.95219302 22.30973398 17.03843905 23.125 19.125 C23.94920618 21.21795504 24.7751005 23.310236 25.60153198 25.40231323 C26.34801575 27.29460482 27.0903693 29.18852415 27.83251953 31.08251953 C28.90423809 33.87756093 28.90423809 33.87756093 30 36 C34.26299914 27.96969929 37.29632088 19.53524336 40.46484375 11.02734375 C40.89152344 9.89683594 41.31820312 8.76632812 41.7578125 7.6015625 C42.33233154 6.05976318 42.33233154 6.05976318 42.91845703 4.48681641 C44 2 44 2 46 0 C49.1875 -0.23046875 49.1875 -0.23046875 53 -0.1875 C54.258125 -0.18105469 55.51625 -0.17460938 56.8125 -0.16796875 C60 0 60 0 62 1 C62.16845334 8.31388857 62.328301 15.627929 62.48217773 22.94213867 C62.53553486 25.43013768 62.5908592 27.91809532 62.64819336 30.40600586 C62.73027948 33.98281941 62.80528146 37.55972226 62.87890625 41.13671875 C62.90594131 42.24834885 62.93297638 43.35997894 62.96083069 44.5052948 C62.98092697 45.54599625 63.00102325 46.58669769 63.02172852 47.65893555 C63.04171402 48.5716069 63.06169952 49.48427826 63.08229065 50.42460632 C62.99730796 53.08425091 62.71738841 55.43629877 62 58 C59.6203388 59.1898306 58.08514265 59.13349966 55.4375 59.125 C54.22900391 59.12886719 54.22900391 59.12886719 52.99609375 59.1328125 C51 59 51 59 50 58 C49.84011509 55.48119483 49.74065775 52.98657734 49.68359375 50.46484375 C49.66281265 49.71159317 49.64203156 48.95834259 49.62062073 48.18226624 C49.55504575 45.7674401 49.49620379 43.35250202 49.4375 40.9375 C49.3943223 39.30402471 49.35070827 37.6705609 49.30664062 36.03710938 C49.19935638 32.02485536 49.09811179 28.01248836 49 24 C48.62190186 24.98919434 48.24380371 25.97838867 47.85424805 26.99755859 C46.44942707 30.66525217 45.03195306 34.32794443 43.6105957 37.98925781 C42.99710155 39.57483434 42.387051 41.16174775 41.78051758 42.75 C40.90827076 45.03224841 40.02376739 47.30940817 39.13671875 49.5859375 C38.86784348 50.29744965 38.5989682 51.00896179 38.32194519 51.74203491 C36.92029048 55.30236761 36.26850626 56.82099583 33 59 C30.0625 59.375 30.0625 59.375 27 59 C23.29288363 56.02892126 21.87760369 52.86991444 20.203125 48.484375 C19.76645508 47.35741211 19.32978516 46.23044922 18.87988281 45.06933594 C18.34202148 43.64395508 17.80416016 42.21857422 17.25 40.75 C15.5175 36.2125 13.785 31.675 12 27 C11.67 37.23 11.34 47.46 11 58 C8.64653604 59.17673198 7.1193967 59.16623866 4.5 59.1875 C3.7059375 59.20167969 2.911875 59.21585938 2.09375 59.23046875 C0 59 0 59 -2 57 C-2.25396729 54.90840149 -2.25396729 54.90840149 -2.25878906 52.29418945 C-2.26824554 50.82675041 -2.26824554 50.82675041 -2.27789307 49.32966614 C-2.27182037 47.73755562 -2.27182037 47.73755562 -2.265625 46.11328125 C-2.26753845 45.02291061 -2.2694519 43.93253998 -2.27142334 42.80912781 C-2.27278669 40.49652883 -2.26907987 38.18392224 -2.26074219 35.87133789 C-2.25009625 32.34438652 -2.260606 28.81795052 -2.2734375 25.29101562 C-2.27211492 23.04426971 -2.26955051 20.79752412 -2.265625 18.55078125 C-2.26967346 17.49949539 -2.27372192 16.44820953 -2.27789307 15.36506653 C-2.24291188 9.84929867 -1.8445996 5.21094807 0 0 Z " fill="#FEFEFD" transform="translate(592,901)"/>
<path d="M0 0 C1.15371094 -0.03738281 2.30742188 -0.07476563 3.49609375 -0.11328125 C6.5625 0.3125 6.5625 0.3125 8.07177734 1.89746094 C9.93726237 4.91963222 11.22060239 8.07353244 12.48046875 11.37890625 C12.87363029 12.39186012 12.87363029 12.39186012 13.2747345 13.42527771 C13.82480878 14.84703487 14.37176439 16.27000212 14.91577148 17.6940918 C15.7497468 19.87433807 16.5957962 22.04961451 17.44335938 24.22460938 C17.97728756 25.6090956 18.51051504 26.99385229 19.04296875 28.37890625 C19.42258003 29.35398888 19.42258003 29.35398888 19.80986023 30.34877014 C20.87935266 33.16671884 21.5625 35.26852293 21.5625 38.3125 C22.2225 38.3125 22.8825 38.3125 23.5625 38.3125 C23.67279541 37.63598389 23.78309082 36.95946777 23.89672852 36.26245117 C24.69036887 32.74592885 25.91249831 29.46450181 27.21484375 26.11328125 C27.47503799 25.43702194 27.73523224 24.76076263 28.00331116 24.06401062 C28.5518413 22.64206316 29.10245323 21.2209172 29.6550293 19.80053711 C30.50030828 17.62420627 31.335459 15.44416924 32.16992188 13.26367188 C32.70512197 11.87997332 33.24090898 10.49650161 33.77734375 9.11328125 C34.02636948 8.46120193 34.2753952 7.80912262 34.53196716 7.13728333 C35.61816772 4.36593753 36.43311612 2.44188388 38.5625 0.3125 C41.75 0.08203125 41.75 0.08203125 45.5625 0.125 C46.820625 0.13144531 48.07875 0.13789062 49.375 0.14453125 C52.5625 0.3125 52.5625 0.3125 54.5625 1.3125 C54.5625 20.1225 54.5625 38.9325 54.5625 58.3125 C52.1828388 59.5023306 50.64764265 59.44599966 48 59.4375 C46.79150391 59.44136719 46.79150391 59.44136719 45.55859375 59.4453125 C43.5625 59.3125 43.5625 59.3125 42.5625 58.3125 C42.40269563 55.86641002 42.30320553 53.44518942 42.24609375 50.99609375 C42.22531265 50.26503922 42.20453156 49.53398468 42.18312073 48.78077698 C42.11754976 46.43728344 42.05870568 44.09367461 42 41.75 C41.95682192 40.16470145 41.91320787 38.57941471 41.86914062 36.99414062 C41.7618608 33.10037963 41.6606151 29.20650228 41.5625 25.3125 C41.28051758 25.9923999 40.99853516 26.6722998 40.70800781 27.37280273 C39.41066448 30.49901767 38.11159366 33.62451203 36.8125 36.75 C36.14734375 38.35391602 36.14734375 38.35391602 35.46875 39.99023438 C34.17489918 43.10118452 32.87115135 46.20775004 31.5625 49.3125 C31.18287109 50.22273926 30.80324219 51.13297852 30.41210938 52.07080078 C30.06470703 52.88403809 29.71730469 53.69727539 29.359375 54.53515625 C29.05870117 55.24551025 28.75802734 55.95586426 28.44824219 56.68774414 C27.5625 58.3125 27.5625 58.3125 25.5625 59.3125 C20.18070059 59.77052548 20.18070059 59.77052548 18.03979492 58.18432617 C16.05551704 55.6701205 15.05014053 53.08741098 13.86328125 50.11328125 C13.13334961 48.30053711 13.13334961 48.30053711 12.38867188 46.45117188 C11.88394799 45.17584717 11.37939283 43.90045568 10.875 42.625 C10.35942822 41.33760836 9.84315977 40.05049549 9.32617188 38.76367188 C8.06472867 35.61595846 6.81048974 32.46556618 5.5625 29.3125 C4.19410637 32.04928725 4.34615182 34.35514424 4.24609375 37.4140625 C4.20419922 38.62578125 4.16230469 39.8375 4.11914062 41.0859375 C4.07982422 42.35695313 4.04050781 43.62796875 4 44.9375 C3.95681641 46.21625 3.91363281 47.495 3.86914062 48.8125 C3.76280114 51.97905348 3.66077167 55.14568753 3.5625 58.3125 C1.22147141 59.48301429 -0.33102953 59.5117246 -2.9375 59.5625 C-3.7315625 59.58828125 -4.525625 59.6140625 -5.34375 59.640625 C-6.0346875 59.53234375 -6.725625 59.4240625 -7.4375 59.3125 C-9.91020536 55.60344196 -9.65909998 53.82976733 -9.59375 49.40625 C-9.58565308 48.70769897 -9.57755615 48.00914795 -9.56921387 47.28942871 C-9.53777578 44.9633924 -9.48929662 42.63816803 -9.4375 40.3125 C-9.42106445 39.50119629 -9.40462891 38.68989258 -9.38769531 37.85400391 C-9.26348993 31.83941702 -9.10382974 25.82604586 -8.9375 19.8125 C-8.88912832 18.00651562 -8.84095018 16.20052604 -8.79296875 14.39453125 C-8.67670142 10.0337913 -8.5578462 5.67312921 -8.4375 1.3125 C-5.61064012 -0.10092994 -3.15018563 0.06672634 0 0 Z " fill="#FEFEFD" transform="translate(671.4375,900.6875)"/>
<path d="M0 0 C2.07678485 -0.01706815 4.15191601 -0.06090988 6.22827148 -0.10522461 C14.28536342 -0.20055501 20.97365453 -0.10683084 27.08764648 5.77856445 C31.52354288 10.79453961 31.90051867 15.06399092 31.82397461 21.50219727 C31.35394478 26.23559622 29.71759465 29.51603472 25.94506836 32.60766602 C24.52589808 33.57619928 23.04050322 34.4463749 21.54663086 35.29516602 C23.32540013 40.71372907 26.71922632 44.77019049 30.17749023 49.21118164 C31.52709961 51.01782227 31.52709961 51.01782227 33.54663086 54.29516602 C33.03663086 57.80516602 33.03663086 57.80516602 31.54663086 59.29516602 C28.01404172 60.16429509 25.07135867 60.22246357 21.54663086 59.29516602 C17.00638278 55.34903763 13.88569627 50.33474854 10.60522461 45.33813477 C10.00838867 44.43708008 9.41155273 43.53602539 8.79663086 42.60766602 C8.28616211 41.77879883 7.77569336 40.94993164 7.24975586 40.09594727 C5.64658957 38.00721233 5.64658957 38.00721233 2.84350586 38.02563477 C2.08553711 38.11458008 1.32756836 38.20352539 0.54663086 38.29516602 C0.52157471 38.89578857 0.49651855 39.49641113 0.47070312 40.11523438 C0.35507806 42.82128039 0.2322015 45.52694885 0.10913086 48.23266602 C0.05015625 49.65095703 0.05015625 49.65095703 -0.01000977 51.09790039 C-0.0519043 51.99702148 -0.09379883 52.89614258 -0.13696289 53.82250977 C-0.19194946 55.07149048 -0.19194946 55.07149048 -0.24804688 56.34570312 C-0.45336914 58.29516602 -0.45336914 58.29516602 -1.45336914 59.29516602 C-3.28452797 59.39367772 -5.11956847 59.42489231 -6.95336914 59.42016602 C-7.95368164 59.42274414 -8.95399414 59.42532227 -9.98461914 59.42797852 C-12.45336914 59.29516602 -12.45336914 59.29516602 -13.45336914 58.29516602 C-13.55230692 56.52070592 -13.58136006 54.7423035 -13.58276367 52.96508789 C-13.58591583 51.82720825 -13.58906799 50.68932861 -13.59231567 49.51696777 C-13.59029144 48.27846069 -13.58826721 47.03995361 -13.58618164 45.76391602 C-13.58713837 44.50252808 -13.58809509 43.24114014 -13.58908081 41.94152832 C-13.58976289 39.26819464 -13.58840443 36.59495165 -13.58374023 33.92163086 C-13.57804295 30.48809911 -13.58132215 27.05464552 -13.5873127 23.62111664 C-13.59178676 20.35621359 -13.58865798 17.09132009 -13.58618164 13.82641602 C-13.58820587 12.58790894 -13.5902301 11.34940186 -13.59231567 10.07336426 C-13.58916351 8.93548462 -13.58601135 7.79760498 -13.58276367 6.62524414 C-13.58196808 5.61788208 -13.58117249 4.61052002 -13.58035278 3.57263184 C-13.25637732 -2.23790426 -4.42353347 0.02529503 0 0 Z M-0.45336914 12.29516602 C-0.45336914 16.58516602 -0.45336914 20.87516602 -0.45336914 25.29516602 C3.93890352 27.49130235 9.95791882 26.75854036 14.54663086 25.42016602 C16.68706311 24.33448705 16.68706311 24.33448705 18.54663086 22.29516602 C19.03369798 17.75956541 19.03369798 17.75956541 17.53881836 13.58422852 C14.36861112 11.53291795 11.00178947 11.98359293 7.35913086 12.10766602 C6.23474609 12.12796875 6.23474609 12.12796875 5.08764648 12.14868164 C3.24033319 12.18398062 1.3933902 12.23778684 -0.45336914 12.29516602 Z " fill="#FEFEFD" transform="translate(793.453369140625,817.704833984375)"/>
<path d="M0 0 C0.89589844 -0.01417969 1.79179688 -0.02835938 2.71484375 -0.04296875 C5.0625 0.1875 5.0625 0.1875 7.0625 2.1875 C7.28955078 4.34228516 7.28955078 4.34228516 7.2578125 6.9765625 C7.25281738 7.82428223 7.24782227 8.67200195 7.24267578 9.54541016 C7.21536377 11.16261963 7.21536377 11.16261963 7.1875 12.8125 C7.14625 16.23625 7.105 19.66 7.0625 23.1875 C14.3225 22.8575 21.5825 22.5275 29.0625 22.1875 C29.35174869 15.32162283 29.35174869 15.32162283 29.63061523 8.45532227 C29.66872314 7.60510498 29.70683105 6.7548877 29.74609375 5.87890625 C29.78275146 5.00435791 29.81940918 4.12980957 29.85717773 3.22875977 C30.0625 1.1875 30.0625 1.1875 31.0625 0.1875 C32.89365883 0.08898829 34.72869933 0.05777371 36.5625 0.0625 C37.5628125 0.05992187 38.563125 0.05734375 39.59375 0.0546875 C42.0625 0.1875 42.0625 0.1875 43.0625 1.1875 C43.16660433 2.92586291 43.20103527 4.66844777 43.20776367 6.40991211 C43.21414352 7.5245433 43.22052338 8.6391745 43.22709656 9.7875824 C43.22820938 11.00107864 43.2293222 12.21457489 43.23046875 13.46484375 C43.23546135 15.32007408 43.23546135 15.32007408 43.24055481 17.21278381 C43.2456293 19.83480455 43.24796298 22.45683178 43.24780273 25.07885742 C43.24772129 27.77456342 43.25468657 30.47010019 43.26831055 33.16577148 C43.28655346 37.03634898 43.29153586 40.90672767 43.29296875 44.77734375 C43.30015427 45.98881577 43.30733978 47.20028778 43.31474304 48.44847107 C43.31166641 49.56625443 43.30858978 50.68403778 43.30541992 51.83569336 C43.30684494 52.82306992 43.30826996 53.81044647 43.30973816 54.82774353 C43.0625 57.1875 43.0625 57.1875 41.0625 59.1875 C38.6796875 59.3828125 38.6796875 59.3828125 35.9375 59.3125 C35.02742187 59.29445313 34.11734375 59.27640625 33.1796875 59.2578125 C32.48101563 59.23460937 31.78234375 59.21140625 31.0625 59.1875 C29.81001498 56.68252996 29.94875594 54.97896726 29.96484375 52.1796875 C29.96734131 51.2913623 29.96983887 50.40303711 29.97241211 49.48779297 C29.98151611 48.35744629 29.99062012 47.22709961 30 46.0625 C30.0309375 40.679375 30.0309375 40.679375 30.0625 35.1875 C22.4725 35.1875 14.8825 35.1875 7.0625 35.1875 C7.10204176 42.00858473 7.10204176 42.00858473 7.15258789 48.82958984 C7.15508545 49.67730957 7.15758301 50.5250293 7.16015625 51.3984375 C7.16539307 52.26774902 7.17062988 53.13706055 7.17602539 54.03271484 C7.0625 56.1875 7.0625 56.1875 6.0625 58.1875 C2.56102959 59.3546568 -0.26420036 59.32107453 -3.9375 59.1875 C-4.5975 58.8575 -5.2575 58.5275 -5.9375 58.1875 C-5.96062883 50.77290058 -5.97841785 43.35830889 -5.98931217 35.94368076 C-5.99453982 32.50109652 -6.00163531 29.05853688 -6.01293945 25.6159668 C-6.02584235 21.66194957 -6.03072918 17.70794244 -6.03515625 13.75390625 C-6.04031754 12.51226212 -6.04547882 11.27061798 -6.05079651 9.99134827 C-6.05087204 8.85024094 -6.05094757 7.70913361 -6.05102539 6.53344727 C-6.053246 5.523069 -6.05546661 4.51269073 -6.05775452 3.47169495 C-5.8368434 -0.72443906 -3.6920067 0.02648498 0 0 Z " fill="#FEFEFD" transform="translate(565.9375,817.8125)"/>
<path d="M0 0 C5.53588533 -0.02464775 11.071739 -0.04283496 16.60766602 -0.05493164 C18.4924373 -0.05997244 20.37720465 -0.06680498 22.26196289 -0.07543945 C24.96501636 -0.08751617 27.66801831 -0.09323068 30.37109375 -0.09765625 C31.21900986 -0.10281754 32.06692596 -0.10797882 32.9405365 -0.11329651 C34.96071068 -0.11349195 36.98077934 -0.06206211 39 0 C40 1 40 1 40.09765625 3.28515625 C40.08605469 4.20167969 40.07445312 5.11820313 40.0625 6.0625 C40.05347656 6.98160156 40.04445313 7.90070312 40.03515625 8.84765625 C40.02355469 9.55792969 40.01195312 10.26820313 40 11 C37.33821779 12.3308911 35.31260604 12.11268993 32.3359375 12.09765625 C31.21445312 12.09443359 30.09296875 12.09121094 28.9375 12.08789062 C27.761875 12.07951172 26.58625 12.07113281 25.375 12.0625 C24.19164062 12.05798828 23.00828125 12.05347656 21.7890625 12.04882812 C18.85935361 12.03701478 15.92967059 12.0190789 13 12 C13 15.63 13 19.26 13 23 C14.64871094 22.98839844 16.29742187 22.97679687 17.99609375 22.96484375 C20.14322804 22.95546762 22.29036355 22.94636723 24.4375 22.9375 C25.52611328 22.92912109 26.61472656 22.92074219 27.73632812 22.91210938 C28.77080078 22.90888672 29.80527344 22.90566406 30.87109375 22.90234375 C31.82943115 22.89710693 32.78776855 22.89187012 33.77514648 22.88647461 C36 23 36 23 37 24 C37.07179964 25.51928038 37.08392007 27.04167482 37.0625 28.5625 C37.05347656 29.38878906 37.04445313 30.21507812 37.03515625 31.06640625 C37.02355469 31.70449219 37.01195312 32.34257813 37 33 C31.75044832 35.15758273 27.19189716 35.24042211 21.625 35.125 C20.79355469 35.11597656 19.96210938 35.10695313 19.10546875 35.09765625 C17.07018663 35.0742622 15.03505436 35.03839725 13 35 C13 38.96 13 42.92 13 47 C14.86527344 46.98839844 16.73054688 46.97679687 18.65234375 46.96484375 C21.08072817 46.95546775 23.50911367 46.94636735 25.9375 46.9375 C27.78504883 46.92493164 27.78504883 46.92493164 29.66992188 46.91210938 C30.83974609 46.90888672 32.00957031 46.90566406 33.21484375 46.90234375 C34.84087524 46.89448853 34.84087524 46.89448853 36.49975586 46.88647461 C39 47 39 47 40 48 C40.0979057 49.49738124 40.12974864 50.99942892 40.125 52.5 C40.12886719 53.72203125 40.12886719 53.72203125 40.1328125 54.96875 C40 57 40 57 39 58 C36.1156618 58.08865208 33.25537842 58.11521296 30.37109375 58.09765625 C29.07474754 58.09553383 29.07474754 58.09553383 27.75221252 58.09336853 C24.98060708 58.08775239 22.2090812 58.07519719 19.4375 58.0625 C17.5631522 58.05748708 15.68880315 58.05292381 13.81445312 58.04882812 C9.20960456 58.03777772 4.60481579 58.0205023 0 58 C-1.26942299 55.46115401 -1.12701165 53.68949709 -1.12939453 50.84765625 C-1.13254669 49.77314209 -1.13569885 48.69862793 -1.13894653 47.59155273 C-1.1369223 46.42696533 -1.13489807 45.26237793 -1.1328125 44.0625 C-1.13376923 42.87148682 -1.13472595 41.68047363 -1.13571167 40.45336914 C-1.13639315 37.93147733 -1.1345411 35.40958377 -1.13037109 32.88769531 C-1.12502243 29.01623616 -1.13031721 25.14489302 -1.13671875 21.2734375 C-1.13605796 18.82812474 -1.13477679 16.38281206 -1.1328125 13.9375 C-1.13483673 12.7729126 -1.13686096 11.6083252 -1.13894653 10.40844727 C-1.13579437 9.33393311 -1.13264221 8.25941895 -1.12939453 7.15234375 C-1.12859894 6.20351318 -1.12780334 5.25468262 -1.12698364 4.27709961 C-1 2 -1 2 0 0 Z " fill="#FDFEFC" transform="translate(458,818)"/>
<path d="M0 0 C1.39456452 0.00667256 2.78911118 0.01863093 4.18359375 0.03515625 C4.89451172 0.03966797 5.60542969 0.04417969 6.33789062 0.04882812 C8.09899388 0.06064761 9.86005411 0.07858362 11.62109375 0.09765625 C16.06269459 11.2850331 20.29220608 22.54625428 24.43359375 33.84765625 C24.67574615 34.50767639 24.91789856 35.16769653 25.16738892 35.84771729 C28.15887455 44.00686733 28.15887455 44.00686733 29.62109375 48.09765625 C29.99967529 49.13954102 30.37825684 50.18142578 30.76831055 51.25488281 C31.62109375 54.09765625 31.62109375 54.09765625 31.62109375 58.09765625 C29.09633913 59.36003356 27.30908909 59.19622029 24.49609375 59.16015625 C23.58601562 59.15113281 22.6759375 59.14210938 21.73828125 59.1328125 C21.03960938 59.12121094 20.3409375 59.10960937 19.62109375 59.09765625 C19.34394531 58.47117187 19.06679688 57.8446875 18.78125 57.19921875 C18.23791016 55.97332031 18.23791016 55.97332031 17.68359375 54.72265625 C17.14412109 53.50449219 17.14412109 53.50449219 16.59375 52.26171875 C15.96410345 50.8608184 15.30796733 49.47140341 14.62109375 48.09765625 C7.36109375 48.09765625 0.10109375 48.09765625 -7.37890625 48.09765625 C-9.35890625 53.04765625 -9.35890625 53.04765625 -11.37890625 58.09765625 C-13.78436263 59.30038444 -15.32887578 59.19837097 -18.00390625 59.16015625 C-19.22980469 59.14662109 -19.22980469 59.14662109 -20.48046875 59.1328125 C-21.10695313 59.12121094 -21.7334375 59.10960937 -22.37890625 59.09765625 C-23.5390625 57.60546875 -23.5390625 57.60546875 -24.37890625 55.09765625 C-23.67616795 52.24297711 -22.85736988 49.70595488 -21.81640625 46.97265625 C-21.51138184 46.13822998 -21.20635742 45.30380371 -20.89208984 44.4440918 C-19.74069596 41.32095645 -18.5604343 38.20951931 -17.37890625 35.09765625 C-16.84516306 33.68096891 -16.31182057 32.26413057 -15.77880859 30.84716797 C-14.02874802 26.19835794 -12.26913159 21.55322794 -10.50390625 16.91015625 C-10.2098288 16.13629578 -9.91575134 15.3624353 -9.61276245 14.56512451 C-8.76991615 12.35201851 -7.92288787 10.14056622 -7.07421875 7.9296875 C-6.81718674 7.25453598 -6.56015472 6.57938446 -6.29533386 5.8837738 C-4.07197331 0.11768709 -4.07197331 0.11768709 0 0 Z M3.62109375 15.09765625 C2.61332346 17.84503002 1.61467929 20.59515577 0.62109375 23.34765625 C0.33492187 24.12496094 0.04875 24.90226563 -0.24609375 25.703125 C-0.51679687 26.45722656 -0.7875 27.21132813 -1.06640625 27.98828125 C-1.31777344 28.67954102 -1.56914063 29.37080078 -1.828125 30.08300781 C-2.55471346 32.39262737 -2.55471346 32.39262737 -2.37890625 36.09765625 C1.91109375 36.09765625 6.20109375 36.09765625 10.62109375 36.09765625 C10.04490624 30.95170571 8.87366097 26.5468757 7.05859375 21.66015625 C6.60355469 20.42394531 6.14851562 19.18773437 5.6796875 17.9140625 C5.33035156 16.98464844 4.98101563 16.05523438 4.62109375 15.09765625 C4.29109375 15.09765625 3.96109375 15.09765625 3.62109375 15.09765625 Z " fill="#FDFEFD" transform="translate(744.37890625,817.90234375)"/>
<path d="M0 0 C3.96 0 7.92 0 12 0 C13.23138229 3.69414686 13.17378 7.14333651 13.2109375 10.9921875 C13.23900578 12.6002706 13.26767025 14.20834339 13.296875 15.81640625 C13.33811875 18.34651401 13.37501488 20.87642909 13.40136719 23.40673828 C13.42903288 25.85229021 13.47490029 28.2969725 13.5234375 30.7421875 C13.52669037 31.49442596 13.52994324 32.24666443 13.53329468 33.021698 C13.63792559 37.51026884 14.20520565 40.44456059 17 44 C20.72579089 46.48386059 22.58711402 46.3804212 27 46 C29.70506833 44.79774741 31.39525514 43.8517365 33.11303711 41.43237305 C34.43944981 37.79486967 34.33903687 34.15789315 34.37890625 30.33203125 C34.39590073 29.49661301 34.4128952 28.66119476 34.43040466 27.80046082 C34.48344926 25.1378835 34.52381087 22.47532159 34.5625 19.8125 C34.60639006 17.13904378 34.65301929 14.46570966 34.70530701 11.79240417 C34.73733395 10.12982869 34.76420211 8.46714464 34.78553772 6.80439758 C34.88822878 1.11177122 34.88822878 1.11177122 36 0 C37.83115883 -0.09851171 39.66619933 -0.12972629 41.5 -0.125 C42.5003125 -0.12757813 43.500625 -0.13015625 44.53125 -0.1328125 C47 0 47 0 48 1 C52.62821361 39.62558522 52.62821361 39.62558522 43.375 51.9375 C37.77648244 57.61794709 31.86042292 59.23742122 24 59.5 C16.9818665 59.26555804 11.46797878 58.16087915 6.19140625 53.3515625 C0.71708558 47.33899927 -0.32680461 41.85685137 -0.625 33.9375 C-0.66222168 33.08986084 -0.69944336 32.24222168 -0.73779297 31.36889648 C-1.17424339 20.80659524 -1.00297641 10.53125232 0 0 Z " fill="#FEFEFD" transform="translate(534,901)"/>
<path d="M0 0 C2.07491682 1.19768365 3.51710656 2.30664261 5.0234375 4.16796875 C5.0234375 6.60546875 5.0234375 6.60546875 4.0234375 9.16796875 C1.4609375 11.48046875 1.4609375 11.48046875 -0.9765625 13.16796875 C-1.605625 12.87921875 -2.2346875 12.59046875 -2.8828125 12.29296875 C-8.55191382 9.83408143 -12.79508645 8.51728706 -18.9765625 9.16796875 C-22.2008688 10.80933992 -22.2008688 10.80933992 -22.4765625 13.60546875 C-22.24495662 16.32320794 -22.24495662 16.32320794 -19.94140625 17.6796875 C-15.78443204 19.76638997 -11.42286555 20.91084917 -6.94726562 22.09765625 C-1.22937963 23.74527459 2.92334501 26.09066559 6.375 31.1484375 C8.0878708 36.48310139 8.0368125 42.98285536 5.5234375 48.04296875 C2.36704604 52.74927287 -2.71500581 55.41411652 -7.9765625 57.16796875 C-10.88705031 57.34357682 -13.75205619 57.44515744 -16.6640625 57.48046875 C-17.44201172 57.50947266 -18.21996094 57.53847656 -19.02148438 57.56835938 C-25.60235342 57.63971158 -30.59159263 55.94750465 -35.7019043 51.7512207 C-36.9765625 50.16796875 -36.9765625 50.16796875 -36.9765625 46.66796875 C-35.9765625 43.16796875 -35.9765625 43.16796875 -33.77734375 41.3046875 C-30.9765625 40.16796875 -30.9765625 40.16796875 -28.14453125 40.96875 C-27.16097656 41.46761719 -26.17742187 41.96648438 -25.1640625 42.48046875 C-19.97067606 44.86316634 -16.64816099 45.97819711 -10.9765625 45.16796875 C-8.41647287 44.16759894 -8.41647287 44.16759894 -6.9765625 42.16796875 C-6.64230515 39.54171736 -6.64230515 39.54171736 -6.9765625 37.16796875 C-10.9013335 34.878519 -14.53506677 33.73588196 -18.9765625 32.73046875 C-25.84568048 31.09820309 -30.273107 28.56823247 -34.9765625 23.16796875 C-36.76879467 17.79127225 -36.92614909 11.59469004 -34.8515625 6.29296875 C-25.44387147 -4.36908109 -12.73131893 -5.51972465 0 0 Z " fill="#FDFEFC" transform="translate(520.9765625,902.83203125)"/>
<path d="M0 0 C3.125 2.1875 3.125 2.1875 5 4 C4.42647107 7.87132028 2.51295648 10.08172796 0 13 C-2.21894132 12.50690193 -4.08289367 11.95855317 -6.125 10.9375 C-10.3431393 9.56201979 -14.59910595 9.49277831 -19 10 C-19.99 10.66 -20.98 11.32 -22 12 C-22.2502157 15.08365871 -22.2502157 15.08365871 -22 18 C-21.40574219 18.17015625 -20.81148437 18.3403125 -20.19921875 18.515625 C1.00938852 24.71658638 1.00938852 24.71658638 5.875 33.3125 C7.50266439 38.64762218 7.10530811 42.49851323 4.8125 47.6875 C0.28383239 53.46545523 -4.74686525 56.77853319 -12 58 C-20.49373062 58.26312672 -29.02249964 57.18562531 -35.71875 51.5546875 C-37 50 -37 50 -37.375 47 C-37 44 -37 44 -35.875 42.0625 C-32.96883438 40.41567282 -31.16173616 41.13207243 -28 42 C-25.99187074 42.98357352 -23.99145391 43.98308736 -22 45 C-17.53058256 46.48980581 -14.36649405 45.6477336 -10 44 C-7.81509993 41.32357511 -7.81509993 41.32357511 -8 39 C-9.53606547 35.92786906 -11.91500565 35.37671477 -15 34 C-17.15495153 33.33573096 -19.32242686 32.71087087 -21.5 32.125 C-27.44393507 30.34927481 -31.71544275 28.64573944 -35.12109375 23.2109375 C-36.91902757 18.68813509 -36.51140127 13.7688168 -36 9 C-33.1903126 2.9483656 -28.83133046 0.06842659 -22.6875 -2.25 C-14.64083986 -3.88660884 -7.61513534 -3.17076193 0 0 Z " fill="#FDFEFD" transform="translate(671,820)"/>
<path d="M0 0 C3.86225166 2.10536275 6.97531965 5.04691617 10.078125 8.1328125 C9.53436132 12.75097443 9.53436132 12.75097443 7.44921875 14.49609375 C5.65885417 15.375 3.86848958 16.25390625 2.078125 17.1328125 C1.53542969 16.78347656 0.99273438 16.43414063 0.43359375 16.07421875 C-0.28183594 15.61917969 -0.99726562 15.16414062 -1.734375 14.6953125 C-2.44207031 14.24285156 -3.14976562 13.79039062 -3.87890625 13.32421875 C-8.07630837 10.87640298 -12.17818975 10.64674228 -16.921875 11.1328125 C-22.11906622 12.93184023 -24.25036941 15.38346923 -26.921875 20.1328125 C-28.6253358 25.2431949 -28.89414702 31.09376797 -27.23828125 36.26953125 C-24.50177203 41.50409868 -20.60907981 44.23707756 -15.109375 46.0703125 C-9.82626615 46.17390287 -4.85858582 44.63914314 -0.671875 41.3828125 C1.078125 40.1328125 1.078125 40.1328125 3.578125 40.1953125 C6.65616167 41.34957625 8.15089714 42.46434315 10.078125 45.1328125 C10.328125 47.5078125 10.328125 47.5078125 9.078125 50.1328125 C2.59701838 56.20884996 -4.08252238 58.98615657 -12.921875 59.1328125 C-22.27057355 58.57263749 -29.25048109 56.08549464 -35.73828125 49.20703125 C-42.67343127 40.60076075 -42.76157411 30.69814056 -41.921875 20.1328125 C-40.17938196 12.76634492 -35.19256672 5.84909804 -28.796875 1.78125 C-19.81903497 -2.80669031 -9.54762212 -3.64224103 0 0 Z " fill="#FDFEFD" transform="translate(543.921875,818.8671875)"/>
<path d="M0 0 C14.85 0 29.7 0 45 0 C46.50934217 3.01868434 46.17510672 5.67297229 46 9 C45.34 9.99 44.68 10.98 44 12 C39.05 12 34.1 12 29 12 C29 26.85 29 41.7 29 57 C24.75824072 59.12087964 22.6377859 59.25765477 18 59 C16 58 16 58 15 55 C14.91389486 53.57281363 14.88228172 52.14193352 14.88647461 50.7121582 C14.88655014 49.85149246 14.88662567 48.99082672 14.88670349 48.1040802 C14.89186478 47.17899155 14.89702606 46.25390289 14.90234375 45.30078125 C14.9037587 44.35059616 14.90517365 43.40041107 14.90663147 42.4214325 C14.91223125 39.38508971 14.92478368 36.34882052 14.9375 33.3125 C14.94251503 31.25455836 14.94707793 29.19661556 14.95117188 27.13867188 C14.9622006 22.09241954 14.97946507 17.04622225 15 12 C14.01257813 12.03480469 13.02515625 12.06960938 12.0078125 12.10546875 C10.72648437 12.13253906 9.44515625 12.15960937 8.125 12.1875 C6.84882813 12.22230469 5.57265625 12.25710938 4.2578125 12.29296875 C3.18273437 12.19628906 2.10765625 12.09960938 1 12 C-1 9 -1 9 0 0 Z " fill="#FCFEFC" transform="translate(407,818)"/>
<path d="M0 0 C0.83426514 -0.00637985 1.66853027 -0.0127597 2.52807617 -0.01933289 C3.43017822 -0.02044571 4.33228027 -0.02155853 5.26171875 -0.02270508 C6.18637939 -0.02603348 7.11104004 -0.02936188 8.0637207 -0.03279114 C10.0206655 -0.03785854 11.97761896 -0.04019952 13.93457031 -0.04003906 C16.93699269 -0.04222742 19.93904884 -0.06039018 22.94140625 -0.0793457 C24.83984249 -0.08227922 26.73828048 -0.0842643 28.63671875 -0.08520508 C29.5388208 -0.09239059 30.44092285 -0.09957611 31.37036133 -0.10697937 C32.62175903 -0.10236443 32.62175903 -0.10236443 33.8984375 -0.09765625 C34.63408936 -0.09908127 35.36974121 -0.10050629 36.12768555 -0.10197449 C37.94921875 0.14526367 37.94921875 0.14526367 39.94921875 2.14526367 C40.26459591 6.48169968 40.39819722 8.47179596 37.94921875 12.14526367 C35.33959775 12.52937643 32.94341135 12.74819565 30.32421875 12.83276367 C29.26460937 12.88400391 29.26460937 12.88400391 28.18359375 12.9362793 C26.43936187 13.01877675 24.6943148 13.08369702 22.94921875 13.14526367 C22.95969238 14.39662109 22.97016602 15.64797852 22.98095703 16.93725586 C23.0171664 21.58143247 23.04012271 26.2255966 23.05908203 30.86987305 C23.06913745 32.87966002 23.0827836 34.88943237 23.10009766 36.89916992 C23.12436599 39.78852955 23.13570646 42.67769569 23.14453125 45.56713867 C23.15485382 46.46519226 23.16517639 47.36324585 23.17581177 48.28851318 C23.17596283 49.12908264 23.17611389 49.9696521 23.17626953 50.83569336 C23.18071075 51.5729364 23.18515198 52.31017944 23.18972778 53.06976318 C22.94921875 55.14526367 22.94921875 55.14526367 20.94921875 59.14526367 C17.31921875 59.14526367 13.68921875 59.14526367 9.94921875 59.14526367 C8.77321845 56.79326308 8.82837334 55.40791967 8.83569336 52.78735352 C8.83576889 51.88657074 8.83584442 50.98578796 8.83592224 50.05770874 C8.84108353 49.08371124 8.84624481 48.10971375 8.8515625 47.10620117 C8.85297745 46.11020905 8.8543924 45.11421692 8.85585022 44.08804321 C8.86145939 40.89875314 8.87401345 37.70953261 8.88671875 34.52026367 C8.89173257 32.36141052 8.89629568 30.20255627 8.90039062 28.04370117 C8.9114318 22.74419817 8.92817887 17.44473589 8.94921875 12.14526367 C7.57636719 12.16266602 7.57636719 12.16266602 6.17578125 12.18041992 C4.39300781 12.19395508 4.39300781 12.19395508 2.57421875 12.20776367 C1.39085937 12.21936523 0.2075 12.2309668 -1.01171875 12.24291992 C-4.05078125 12.14526367 -4.05078125 12.14526367 -6.05078125 11.14526367 C-6.05078125 7.84526367 -6.05078125 4.54526367 -6.05078125 1.14526367 C-3.78093567 0.01034088 -2.52023025 0.01305863 0 0 Z " fill="#FDFEFC" transform="translate(760.05078125,900.854736328125)"/>
<path d="M0 0 C1.34644592 -0.00472824 1.34644592 -0.00472824 2.72009277 -0.009552 C4.18412537 -0.00651566 4.18412537 -0.00651566 5.67773438 -0.00341797 C6.67276978 -0.00437469 7.66780518 -0.00533142 8.69299316 -0.00631714 C10.80135155 -0.00699907 12.90971203 -0.0051439 15.01806641 -0.00097656 C18.25753465 0.0043715 21.49686423 -0.00092114 24.73632812 -0.00732422 C26.77929718 -0.00666344 28.82226615 -0.00538228 30.86523438 -0.00341797 C31.8412561 -0.0054422 32.81727783 -0.00746643 33.82287598 -0.009552 C34.72050659 -0.00639984 35.61813721 -0.00324768 36.54296875 0 C37.73424377 0.00119339 37.73424377 0.00119339 38.94958496 0.00241089 C40.77148438 0.12939453 40.77148438 0.12939453 41.77148438 1.12939453 C41.84353949 2.81548419 41.85534505 4.50440112 41.83398438 6.19189453 C41.82496094 7.11099609 41.8159375 8.03009766 41.80664062 8.97705078 C41.79503906 9.68732422 41.7834375 10.39759766 41.77148438 11.12939453 C38.70615273 12.66206035 35.50394166 12.23215924 32.14648438 12.19189453 C31.44007813 12.18738281 30.73367188 12.18287109 30.00585938 12.17822266 C28.26103162 12.16643328 26.51624738 12.14849778 24.77148438 12.12939453 C24.7759256 12.68871674 24.78036682 13.24803894 24.78494263 13.8243103 C24.82909587 19.63138277 24.85931732 25.43840778 24.88134766 31.24560547 C24.89142226 33.41457047 24.90508235 35.58352185 24.92236328 37.75244141 C24.9465476 40.86510579 24.9579527 43.97759104 24.96679688 47.09033203 C24.97711945 48.06432953 24.98744202 49.03832703 24.99807739 50.0418396 C24.99822845 50.94262238 24.99837952 51.84340515 24.99853516 52.77148438 C25.00297638 53.56646332 25.0074176 54.36144226 25.01199341 55.18051147 C24.77148438 57.12939453 24.77148438 57.12939453 22.77148438 59.12939453 C20.42382812 59.35986328 20.42382812 59.35986328 17.70898438 59.31689453 C16.81050781 59.31044922 15.91203125 59.30400391 14.98632812 59.29736328 C12.77148438 59.12939453 12.77148438 59.12939453 11.77148438 58.12939453 C11.64938514 56.71821751 11.59377565 55.30118994 11.56616211 53.88500977 C11.54621689 52.98415146 11.52627167 52.08329315 11.50572205 51.15513611 C11.48900955 50.17597733 11.47229706 49.19681854 11.45507812 48.18798828 C11.43429703 47.19058121 11.41351593 46.19317413 11.3921051 45.1655426 C11.326498 41.96606611 11.26767304 38.76650471 11.20898438 35.56689453 C11.16580975 33.40347414 11.12219582 31.24006247 11.078125 29.07666016 C10.97080535 23.7609958 10.86906011 18.44524619 10.77148438 13.12939453 C9.70027344 13.06880859 8.6290625 13.00822266 7.52539062 12.94580078 C6.12824046 12.86140916 4.73110581 12.77676048 3.33398438 12.69189453 C2.62693359 12.65257812 1.91988281 12.61326172 1.19140625 12.57275391 C-4.11523438 12.24267578 -4.11523438 12.24267578 -5.22851562 11.12939453 C-5.326755 9.46510402 -5.35825193 7.79657522 -5.35351562 6.12939453 C-5.35609375 5.22189453 -5.35867188 4.31439453 -5.36132812 3.37939453 C-5.12998177 -0.53988486 -3.48828482 0.00349448 0 0 Z " fill="#FDFEFC" transform="translate(833.228515625,817.87060546875)"/>
<path d="M0 0 C0.75341675 0.00142502 1.5068335 0.00285004 2.28308105 0.00431824 C3.13736694 0.00124161 3.99165283 -0.00183502 4.87182617 -0.00500488 C5.795802 0.00218063 6.71977783 0.00936615 7.67175293 0.01676941 C8.61860962 0.01722763 9.56546631 0.01768585 10.54101562 0.01815796 C12.54505667 0.02118206 14.54909534 0.02907306 16.55310059 0.04142761 C19.62789194 0.05966337 22.70238195 0.06193747 25.77722168 0.06169128 C27.72123471 0.06660718 29.66524569 0.07243582 31.60925293 0.07926941 C32.99521667 0.08093864 32.99521667 0.08093864 34.40917969 0.0826416 C35.69060852 0.09221138 35.69060852 0.09221138 36.9979248 0.10197449 C38.12804993 0.10769218 38.12804993 0.10769218 39.28100586 0.11352539 C41.14050293 0.24723816 41.14050293 0.24723816 43.14050293 1.24723816 C43.14050293 4.54723816 43.14050293 7.84723816 43.14050293 11.24723816 C40.07517129 12.77990398 36.87296021 12.35000287 33.51550293 12.30973816 C32.80909668 12.30522644 32.10269043 12.30071472 31.37487793 12.29606628 C29.63005018 12.28427691 27.88526593 12.2663414 26.14050293 12.24723816 C26.14494415 12.80656036 26.14938538 13.36588257 26.15396118 13.94215393 C26.19811442 19.7492264 26.22833587 25.55625141 26.25036621 31.3634491 C26.26044082 33.5324141 26.27410091 35.70136547 26.29138184 37.87028503 C26.31556616 40.98294942 26.32697125 44.09543467 26.33581543 47.20817566 C26.346138 48.18217316 26.35646057 49.15617065 26.36709595 50.15968323 C26.36724701 51.060466 26.36739807 51.96124878 26.36755371 52.889328 C26.37199493 53.68430695 26.37643616 54.47928589 26.38101196 55.2983551 C26.14050293 57.24723816 26.14050293 57.24723816 24.14050293 59.24723816 C21.79284668 59.47770691 21.79284668 59.47770691 19.07800293 59.43473816 C18.17952637 59.42829285 17.2810498 59.42184753 16.35534668 59.41520691 C14.14050293 59.24723816 14.14050293 59.24723816 13.14050293 58.24723816 C13.01828768 56.80539523 12.96277535 55.35780672 12.93518066 53.91105652 C12.91523544 52.99017746 12.89529022 52.0692984 12.8747406 51.12051392 C12.85802811 50.11948135 12.84131561 49.11844879 12.82409668 48.08708191 C12.80331558 47.06747879 12.78253448 46.04787567 12.76112366 44.99737549 C12.69551441 41.72656768 12.63669059 38.45567679 12.57800293 35.18473816 C12.53482851 32.97314088 12.49121459 30.76155213 12.44714355 28.54997253 C12.33982153 23.11581665 12.2380767 17.68157734 12.14050293 12.24723816 C11.30905762 12.25883972 10.4776123 12.27044128 9.62097168 12.28239441 C8.53429199 12.29141785 7.4476123 12.30044128 6.32800293 12.30973816 C5.24905762 12.32133972 4.1701123 12.33294128 3.05847168 12.34489441 C0.14050293 12.24723816 0.14050293 12.24723816 -2.85949707 11.24723816 C-3.0812464 9.79088445 -3.28648405 8.3320086 -3.48449707 6.87223816 C-3.6005127 6.06012878 -3.71652832 5.24801941 -3.83605957 4.41130066 C-3.84379395 3.69716003 -3.85152832 2.98301941 -3.85949707 2.24723816 C-1.85949707 0.24723816 -1.85949707 0.24723816 0 0 Z " fill="#FDFEFD" transform="translate(682.8594970703125,817.7527618408203)"/>
<path d="M0 0 C1.50046875 0.00386719 1.50046875 0.00386719 3.03125 0.0078125 C4.0315625 0.00523437 5.031875 0.00265625 6.0625 0 C8.53125 0.1328125 8.53125 0.1328125 9.53125 1.1328125 C9.64058299 2.8710098 9.68032948 4.61363388 9.69238281 6.35522461 C9.70199036 7.4698558 9.7115979 8.584487 9.72149658 9.7328949 C9.72574646 10.94639114 9.72999634 12.15988739 9.734375 13.41015625 C9.74007507 14.64697647 9.74577515 15.88379669 9.75164795 17.15809631 C9.76111479 19.7801121 9.76763858 22.40213987 9.77148438 25.02416992 C9.77588245 27.71994468 9.78982047 30.41540177 9.8125 33.11108398 C9.84282625 36.98170795 9.8535173 40.85192702 9.859375 44.72265625 C9.8717218 45.93412827 9.8840686 47.14560028 9.89678955 48.39378357 C9.89378845 49.51156693 9.89078735 50.62935028 9.88769531 51.78100586 C9.89134094 52.76838242 9.89498657 53.75575897 9.89874268 54.77305603 C9.77747009 55.55177567 9.65619751 56.3304953 9.53125 57.1328125 C6.36182116 59.24576506 5.53495047 59.38532179 1.90625 59.3203125 C1.10960937 59.31386719 0.31296875 59.30742188 -0.5078125 59.30078125 C-2.46875 59.1328125 -2.46875 59.1328125 -3.46875 58.1328125 C-3.56768778 56.35835241 -3.59674092 54.57994999 -3.59814453 52.80273438 C-3.60129669 51.66485474 -3.60444885 50.5269751 -3.60769653 49.35461426 C-3.6056723 48.11610718 -3.60364807 46.8776001 -3.6015625 45.6015625 C-3.60251923 44.34017456 -3.60347595 43.07878662 -3.60446167 41.7791748 C-3.60514375 39.10584112 -3.60378529 36.43259813 -3.59912109 33.75927734 C-3.59342381 30.32574559 -3.59670301 26.892292 -3.60269356 23.45876312 C-3.60716762 20.19386007 -3.60403883 16.92896657 -3.6015625 13.6640625 C-3.60358673 12.42555542 -3.60561096 11.18704834 -3.60769653 9.91101074 C-3.60454437 8.7731311 -3.60139221 7.63525146 -3.59814453 6.46289062 C-3.59734894 5.45552856 -3.59655334 4.4481665 -3.59573364 3.41027832 C-3.4177482 0.21808943 -3.20370195 0.17235105 0 0 Z " fill="#FDFEFC" transform="translate(738.46875,900.8671875)"/>
</svg>
